<svg width="69.274" height="78.2" viewBox="0 0 69.274 78.2" xmlns="http://www.w3.org/2000/svg"><g id="svgGroup" stroke-linecap="round" fill-rule="evenodd" font-size="9pt" stroke="#1C1C1C" stroke-width="0.25mm" fill="#1C1C1C" style="stroke:#1C1C1C;stroke-width:0.25mm;fill:#1C1C1C"><path d="M 10.1 2.1 L 9.9 1.8 C 8.559 4.009 7.218 8.458 6.711 13.675 A 44.864 44.864 0 0 0 6.5 18 C 6.5 22.5 8.9 28.6 13.9 28.6 A 8.906 8.906 0 0 0 17.67 27.595 C 27.986 22.657 42.786 1.212 49.6 1.3 C 50.628 1.3 51.288 1.667 51.457 2.902 A 5.179 5.179 0 0 1 51.5 3.6 A 10.819 10.819 0 0 1 49.088 9.478 C 40.232 21.655 9.643 36.796 1.829 54.026 A 18.994 18.994 0 0 0 0 61.9 A 17.384 17.384 0 0 0 0.195 64.487 C 1.228 71.343 6.413 78.2 16.8 78.2 A 8.048 8.048 0 0 0 21.833 75.834 C 28.173 70.339 35.788 55.586 43.205 34.909 A 361.611 361.611 0 0 0 46.2 26.2 L 47.3 26.2 L 32.7 67.5 A 17.284 17.284 0 0 0 36.957 72.558 C 39.885 74.988 43.577 76.711 46.945 76.967 A 11.279 11.279 0 0 0 47.8 77 A 16.045 16.045 0 0 0 56.737 73.872 C 66.693 67.045 73.529 51.066 66.2 46.7 A 3.476 3.476 0 0 0 64.627 46.246 C 60.439 45.99 53.499 51.435 49.449 56.88 A 28.636 28.636 0 0 0 49 57.5 L 49.4 57.9 A 17.968 17.968 0 0 1 49.994 57.213 C 51.411 55.666 52.264 55.446 53.535 55.57 A 9.956 9.956 0 0 1 53.8 55.6 C 58.972 56.097 55.933 77.173 49.012 75.528 A 3.635 3.635 0 0 1 48.9 75.5 A 2.936 2.936 0 0 1 47.005 73.817 C 45.988 71.728 46 67.775 47.259 61.79 A 82.261 82.261 0 0 1 48 58.6 C 50.5 49 58.8 23.9 60.1 15.6 C 61.671 5.158 57.009 0.694 52.346 0.076 A 8.726 8.726 0 0 0 51.2 0 A 16.956 16.956 0 0 0 45.698 1.002 C 36.979 3.984 28.26 12.6 16.6 12.6 C 11.921 12.6 6.845 9.428 10.057 2.196 A 15.991 15.991 0 0 1 10.1 2.1 Z M 48.6 11.9 L 49.1 12.4 A 1381.731 1381.731 0 0 1 46.197 22.095 C 40.259 41.526 32.738 62.2 21.2 62.2 C 16.9 62.2 14.9 59.2 15.1 54.7 C 15.9 36.5 32 29.2 48.6 11.9 Z" vector-effect="non-scaling-stroke"/></g></svg>