<svg width="2464" height="1856" viewBox="0 0 2464 1856" fill="none" xmlns="http://www.w3.org/2000/svg">
<path d="M1018.79 311C1019.61 311.119 1020.15 311.164 1020.92 311.378C1025.67 312.698 1032.6 316.65 1034.5 321.448C1035.58 324.176 1034.7 326.369 1033.83 328.982C1031.99 329.005 1030.01 329.075 1028.21 328.63C1024.77 327.779 1021.36 325.189 1019.65 322.08C1017.52 318.22 1017.71 315.15 1018.79 311Z" fill="black"/>
<path d="M1030.55 298.002C1033.21 297.945 1035.96 298.902 1038.41 299.91C1042.8 301.727 1045.18 303.36 1046.98 307.88C1047.19 311.011 1045.89 312.552 1044.26 315C1041.95 314.854 1040.03 314.421 1037.86 313.622C1032.99 311.827 1030.2 310.28 1028 305.35C1028.09 301.798 1028.8 300.973 1030.55 298.002Z" fill="black"/>
<path d="M873.516 626C875.91 626.275 876.769 626.682 878.591 628.253C880.363 631.703 879.963 635.409 879.958 639.194C877.449 644.156 875.257 647.373 870.937 651C870.538 650.911 870.125 650.865 869.738 650.731C867.815 650.064 865.849 647.818 865.311 645.944C863.494 639.619 870.091 630.96 873.516 626Z" fill="black"/>
<path d="M849.511 620C851.692 620.713 853.265 621.282 854.732 623.193C856.641 625.68 857.332 629.022 856.854 632.135C855.91 638.262 853.61 641.293 849.004 644.992C847.297 645.045 845.894 644.833 844.205 644.594C842.502 643.152 841.475 642.479 841.097 640.037C840.14 633.834 846.494 625.142 849.511 620Z" fill="black"/>
<path d="M1783.04 1522C1785.87 1522.33 1788.25 1522.66 1790.58 1524.38C1796.44 1528.71 1802.97 1534.1 1804 1541.6C1803 1544.74 1802.6 1544.98 1800.14 1547C1794.54 1544.59 1788.33 1541 1783.84 1536.91C1781.39 1534.66 1778.91 1531.56 1779 1528.11C1779.09 1525.26 1781.17 1523.81 1783.04 1522Z" fill="black"/>
<path d="M573.806 1471C575.075 1471.29 576.012 1471.76 577.177 1472.33C577.7 1473.36 578.155 1474.28 578.445 1475.41C581.619 1487.78 579.845 1517.11 573.937 1528C571.744 1526.29 569.944 1524.7 569.076 1521.95C564.857 1508.59 567.384 1483.08 573.806 1471Z" fill="black"/>
<path d="M1900.04 880C1911.16 880.413 1918.06 890.694 1928.04 894.216C1938.44 897.886 1954.49 894.275 1962.96 901.241C1963.8 903.114 1964.52 904.229 1963.5 906.295C1962.3 908.76 1960.62 908.784 1958.26 909.38C1957.57 909.882 1957.42 910.062 1956.47 910.331C1945.04 913.565 1919.33 904.343 1909.6 898.189C1905.36 895.506 1898.75 890.738 1898.07 885.424C1897.75 882.865 1898.52 881.963 1900.04 880Z" fill="black"/>
<path d="M1981.1 1407C1982.33 1407.22 1982.82 1407.48 1983.87 1408.09C1983.92 1408.42 1984 1408.74 1984 1409.08C1984.02 1416.73 1954.69 1455.69 1949.16 1464.16C1944.62 1471.12 1941.05 1479.56 1935.43 1485.68C1933.44 1487.85 1932.43 1487.78 1929.5 1488C1928.85 1487.02 1928.08 1485.99 1928.01 1484.75C1927.24 1470.35 1968.89 1418.83 1981.1 1407Z" fill="black"/>
<path d="M1896.76 1407.02C1898.23 1406.96 1899.65 1407.04 1901.11 1407.09C1903.05 1410.46 1901.34 1414.88 1900.48 1418.51C1898.85 1425.44 1896.91 1432.39 1896.1 1439.46C1893.47 1462.59 1895.51 1487.04 1889.93 1509.62C1887.9 1511.59 1887.16 1511.5 1884.45 1512C1873.05 1500.76 1886.67 1444.08 1890.82 1428.74C1892.44 1422.79 1897.44 1412.6 1896.76 1407.02Z" fill="black"/>
<path d="M895.163 644C897.895 644.309 899.233 644.355 901.132 646.41C901.225 648.279 901.112 650.768 901.635 652.541C904.633 662.706 935.798 653.946 947 661.982L946.622 664.923C936.047 670.892 915.792 668.539 903.629 668.457C892.182 668.99 880.818 669.354 869.372 668.447C864.232 668.04 855.978 667.87 852.594 663.253C851.643 661.957 852.086 661.153 852.221 659.655C861.522 647.57 874.704 659.255 881.369 656.932C887.462 654.809 889.074 646.99 895.163 644Z" fill="black"/>
<path d="M1064.48 1527C1065.59 1527.38 1066.57 1527.97 1067.6 1528.53C1069 1532.36 1066.38 1537.82 1065.07 1541.52C1055.97 1567.43 1046.54 1593.22 1036.78 1618.89C1033.98 1626.37 1031.19 1638.22 1026.79 1644.7C1025.4 1646.75 1022.29 1647.96 1020.12 1649C1018.05 1646.88 1016.32 1645.41 1016.02 1642.26C1015.18 1633.61 1049.03 1554.11 1054.99 1542.04C1057.66 1536.62 1060.53 1531.6 1064.48 1527Z" fill="black"/>
<path d="M1797.29 1476.14C1806.99 1475.42 1816.84 1477.52 1825.72 1481.48C1837.18 1486.59 1850.57 1496.52 1854.7 1509.21C1855.31 1511.07 1854.94 1511.34 1854.08 1512.96C1844.46 1515.55 1825.75 1494.47 1815.73 1490.12C1810.28 1487.75 1805.02 1487.2 1799.2 1487.08C1797.66 1487.81 1795.82 1488.79 1794.72 1490.15C1786.49 1500.39 1812.65 1517.89 1814.24 1528.06C1813.33 1530.49 1812.99 1530.48 1810.78 1531.86C1808.95 1532.12 1807.71 1532.07 1806.04 1531.27C1796.72 1526.82 1786.52 1511.86 1783.32 1502.08C1781.53 1496.61 1781.33 1490.59 1784.17 1485.45C1786.98 1480.36 1792 1477.76 1797.29 1476.14Z" fill="black"/>
<path d="M1343.5 472.002C1349.89 471.942 1353.23 473.379 1358.51 476.593C1361.35 481.162 1363.67 485.84 1365.95 490.696C1367.89 489.501 1369.88 488.205 1371.94 487.242C1377.24 484.771 1382.84 483.971 1388.46 485.902C1393.5 487.637 1396.67 491.859 1398.78 496.506C1400.31 499.885 1402.09 505.592 1400.15 509.154C1398.82 511.578 1397.41 512.181 1394.97 513.118C1387.79 511.923 1389.91 501.562 1384.75 496.99C1382.65 496.543 1381.93 496.438 1379.84 497.204C1374.61 499.108 1371.48 503.132 1369.29 507.926L1366.64 513.631C1353.39 510.314 1357.97 490.491 1349.16 482.26C1347.24 481.909 1346.79 481.781 1345 482.778C1335.74 487.929 1344.51 508.09 1341.78 516.353C1341.15 518.238 1340.6 518.229 1338.88 519C1337.8 518.787 1336.69 518.607 1335.68 518.144C1332.31 516.602 1330.33 513.15 1329.32 509.812C1326.5 500.527 1328.34 487.612 1333.41 479.271C1335.97 475.054 1338.76 473.292 1343.5 472.002Z" fill="black"/>
<path d="M644.658 1501C648.399 1501.06 651.374 1501.11 654.218 1503.87C659.672 1509.18 657.905 1520.43 657.66 1527.37C664.778 1523.57 674.303 1519.54 682.527 1520.95C686.075 1521.55 689.454 1523.46 691.416 1526.52C693.384 1529.6 693.278 1533.21 692.393 1536.64C691.119 1541.57 687.721 1545.47 683.27 1547.89C680.664 1549.31 677.23 1550.69 674.275 1549.62C672.93 1549.13 672.972 1548.29 672.451 1547.08C673.599 1540.38 678.634 1536.68 683.356 1532.22C676.11 1533.63 669.525 1535.97 662.781 1538.92C657.127 1541.9 648.939 1550.17 642.485 1549.24C634.912 1541.11 648.272 1521.04 643.957 1513.91C633.04 1515.28 632.14 1531.81 624.37 1535.23C622.627 1536 622.33 1535.41 620.665 1534.76C619.386 1532.02 620.18 1528.33 621.133 1525.6C624.998 1514.51 634.299 1506.03 644.658 1501Z" fill="black"/>
<path d="M499.472 1367C500.396 1367.1 501.007 1367.14 501.93 1367.42C503.983 1368.06 505.118 1369.4 506.132 1371.16C522.701 1400.07 540.481 1497.37 531.659 1529.7L528.334 1530C525.483 1528.89 524.138 1526.81 522.991 1524.09C518.674 1513.84 519.781 1477.41 518.071 1462.7C515.858 1443.66 512.096 1424.38 507.382 1405.79C505.326 1397.68 496.939 1373.49 499.472 1367Z" fill="black"/>
<path d="M1100.07 209.043C1101.6 208.984 1103.25 208.945 1104.76 209.208C1106.76 209.558 1108.42 210.919 1109.46 212.65C1112.43 217.622 1110.19 226.117 1109.16 231.516C1111.89 234.074 1115.45 236.988 1117.16 240.357C1118.32 242.646 1118.12 243.791 1117.51 246.201C1112.63 251.264 1104.28 251.257 1099.12 255.632C1094.14 259.841 1094.11 267.269 1086.78 269C1083.91 268.542 1082.8 268.042 1080.52 266.228C1078.49 262.774 1077.62 258.31 1075.05 255.281C1070.9 250.416 1063.68 251.747 1060.62 246.77C1057.37 241.508 1067.92 233.688 1070.16 229.567C1071.81 226.511 1072.1 221.742 1072.85 218.316C1073.55 215.122 1074.74 213.728 1077.4 211.994C1082.12 211.025 1087.32 213.083 1091.95 214.252L1100.07 209.043ZM1089.06 228.196C1083.13 230.445 1081.59 234.228 1078.8 239.592C1082.35 242.494 1085.86 245.439 1089.34 248.426C1089.56 248.186 1089.76 247.944 1089.98 247.707C1092.45 245.002 1094.99 243.082 1098.03 241.077C1099.11 238.068 1098.72 236.531 1097.46 233.743C1096.32 231.221 1095.93 229.984 1093.7 228.419L1089.06 228.196Z" fill="black"/>
<path d="M453.075 1492C458.232 1491.99 463.454 1492.67 468.254 1494.65C479.895 1499.46 499.546 1516.08 504.216 1527.95C505.245 1530.57 505.283 1532.43 504.2 1534.98C494.723 1536.18 477.954 1514.91 469.356 1509.27C465.262 1506.59 458.068 1502.37 453.159 1503.66C451.066 1504.21 450.943 1504.82 449.882 1506.57C450.36 1515.5 462.568 1530.73 468.562 1537.28C469.847 1538.74 471.072 1540.27 472.316 1541.77C472.702 1544.34 472.891 1544.29 471.462 1546.41C460.782 1550.96 442.289 1542.21 430.994 1540.52L429.872 1540.35C433.718 1544.98 438.898 1547.69 442.559 1552.16C443.153 1554.6 443.288 1555.55 442.43 1558.02C440.488 1559.58 439.391 1560.15 436.832 1559.97C431.436 1559.59 425.359 1555.46 422.136 1551.21C419.998 1548.39 418.539 1544.78 419.134 1541.18C419.753 1537.45 422.507 1534.23 425.52 1532.15C432.498 1527.33 441.745 1529.94 449.363 1531.4C446.364 1524.52 442.148 1518.28 440.354 1510.88C439.381 1506.87 439.083 1502.18 441.45 1498.58C444.105 1494.54 448.649 1493.09 453.075 1492Z" fill="black"/>
<path d="M870.835 870C871.922 870.395 873.009 870.836 873.966 871.501C875.879 872.829 876.682 874.613 876.948 876.884C877.276 879.693 875.972 883.746 875.314 886.488C870.202 907.775 858.132 925.698 843.022 941.231C819.071 965.854 774.903 993.593 739.556 994C736.55 992.717 735.355 992.231 734 989.21C736.09 983.34 744.374 981.603 749.842 979.981C760.663 976.771 772.164 974.087 782.561 969.717C811.343 957.622 842.641 933.276 855.968 904.489C860.928 893.774 862.438 879.516 870.239 870.652C870.434 870.431 870.636 870.217 870.835 870Z" fill="black"/>
<path d="M1736.71 1451.34L1737.58 1451.24C1746.67 1450.27 1756.19 1452.22 1763.34 1458.1C1767.62 1461.64 1770.72 1466.57 1770.98 1472.18C1771.18 1476.47 1769.46 1480.36 1766.45 1483.4C1757.72 1492.2 1740.99 1493.15 1729.28 1492.98C1719.23 1491.81 1708.57 1488.94 1700.24 1483.02C1697.35 1480.96 1694.58 1478.18 1694.08 1474.53C1693.66 1471.43 1694.92 1468.45 1696.78 1466.02C1705.57 1454.54 1723.51 1453.36 1736.71 1451.34ZM1735.28 1464.21C1728.57 1465.57 1714.86 1467.04 1710.94 1472.93C1710.15 1474.13 1710.65 1474.6 1710.98 1475.86C1716.38 1480.28 1724.76 1480.28 1731.48 1480.84C1739.19 1480.9 1748.7 1480.96 1754.66 1475.29C1755.72 1474.29 1756.22 1473.14 1756.81 1471.85C1756.65 1469.61 1756.6 1468.44 1754.77 1466.89C1750.4 1463.18 1740.66 1463.43 1735.28 1464.21Z" fill="black"/>
<path d="M1106.36 372C1109 372.689 1111.35 373.208 1113.28 375.316C1117.55 380.002 1114.94 389.471 1114.23 395.048C1117.37 396.465 1120.5 397.934 1123.6 399.455C1126.82 401.067 1130.79 404.113 1131.77 407.804C1132.27 409.711 1131.95 411.359 1130.87 413.002C1127.64 417.934 1119.52 419.397 1114.2 420.769C1112.17 426.58 1108.9 440.11 1103.44 443.19C1101.99 444.006 1100.86 444.168 1099.28 443.843C1094.74 442.911 1092.48 438.124 1090.18 434.518C1088.59 432.429 1086.76 430.464 1085.03 428.474C1079.77 430.529 1075.41 432.628 1069.72 430.811C1067.87 429.284 1066.22 427.799 1066.03 425.214C1065.55 419.104 1071.85 413.472 1075.28 409.03C1081.59 400.856 1074.22 396.73 1073.93 388.533C1073.85 386.517 1074.58 384.73 1076.26 383.545C1081.37 379.951 1089.72 384.668 1094.85 386.294C1098.04 381.223 1101.17 375.166 1106.36 372ZM1101.2 396.229C1097.41 398.585 1095.5 398.535 1091.25 397.511C1089.24 397.02 1087.24 396.496 1085.25 395.939C1087.38 399.644 1090.07 403.27 1088.91 407.774C1087.88 411.72 1084.36 415.576 1082.29 419.088C1087.69 419.847 1091.91 420.518 1096.54 423.628L1098.47 424.826C1105.99 414.09 1102.83 412.575 1116.67 409.291C1112.71 407.029 1108.68 404.843 1104.8 402.437C1103.89 400.314 1103.28 397.236 1101.2 396.229Z" fill="black"/>
<path d="M1767.11 1382.9C1776.65 1382.11 1788.53 1380.35 1797.02 1385.9C1800.02 1387.86 1802.22 1390.74 1802.83 1394.34C1803.57 1398.68 1801.79 1403.27 1799.36 1406.79C1791.39 1418.31 1773.17 1424.8 1760 1426.97C1750.86 1428.41 1740.76 1428.93 1732.24 1424.51C1728.95 1422.81 1726.32 1420.18 1725.39 1416.49C1724.32 1412.28 1725.53 1407.98 1727.79 1404.37C1736.06 1391.17 1752.89 1385.94 1767.11 1382.9ZM1777.25 1393.85C1768.39 1395.25 1743.99 1401.02 1738.6 1408.39C1737.84 1409.43 1737.89 1409.55 1737.59 1410.61C1738.9 1412.62 1739.71 1413.16 1742.12 1413.6C1744.39 1414.04 1747 1413.97 1749.32 1414.05C1761.4 1413.09 1778.26 1411.02 1786.77 1401.09C1788.1 1399.54 1788.77 1398.37 1788.98 1396.28C1787.76 1394.54 1786.76 1393.75 1784.55 1393.43C1782.29 1393.11 1779.47 1393.39 1777.25 1393.85Z" fill="black"/>
<path d="M1835.65 627.018C1837.24 626.958 1838.78 627.061 1840.37 627.139C1842.11 628.351 1843.48 629.215 1843.74 631.594C1844.33 636.927 1838.38 648.674 1836.58 654.034C1831.57 668.931 1828.6 686.343 1831.77 701.948C1840.1 743.051 1868.11 772.615 1911.36 774.094C1918.76 774.346 1933.02 770.69 1939.02 774.691C1940.22 777.021 1940.13 777.205 1939.75 779.823C1937.78 782.1 1937.24 782.28 1934.53 783.238C1932.65 784.918 1930.29 785.456 1927.85 785.967C1907.07 790.318 1874.39 780.263 1857.27 768.124C1836.47 753.365 1824.77 731.269 1820.56 706.349C1816.29 681.072 1820.6 648.261 1835.65 627.018Z" fill="black"/>
<path d="M1618.01 1404.17C1623.25 1403.73 1627.35 1404.03 1632.2 1406.23C1644.13 1411.63 1652.33 1423.52 1656.86 1435.37C1660.88 1445.83 1664.63 1461.95 1659.52 1472.53C1657.16 1477.45 1653.41 1479.3 1648.43 1481C1646.42 1480.97 1644.27 1480.98 1642.32 1480.46C1630.12 1477.17 1616.99 1460 1611.16 1449.59C1605.97 1440.32 1601.88 1428.63 1605.19 1418.08C1607.41 1411.01 1611.61 1407.51 1618.01 1404.17ZM1618.67 1418.46C1616.03 1424.1 1616.71 1427.74 1618.79 1433.5C1623.37 1446.1 1633.67 1460.25 1646.1 1465.94C1646.93 1466.32 1647.75 1466.67 1648.58 1467.02C1651.28 1461.59 1648.66 1452.53 1646.71 1446.93C1642.99 1436.23 1636.73 1425.94 1626.06 1420.91C1623.74 1419.81 1621.2 1418.92 1618.67 1418.46Z" fill="black"/>
<path d="M1832.98 951.602C1835.5 951.058 1838.56 950.68 1841.09 951.386C1844.49 952.339 1846.91 955.111 1848.4 958.173C1851.94 965.411 1851.76 977.541 1849.02 985.096C1855.91 981.849 1860.75 974.748 1867.6 970.872C1871.64 968.588 1877.69 965.824 1882.39 967.967C1885.27 969.285 1887.77 973.084 1888.76 975.995C1890.27 979.723 1890.27 984.064 1889.45 987.951C1887.97 994.876 1883.56 1002.73 1877.43 1006.65C1877.18 1007.15 1877.03 1007.71 1876.7 1008.17C1870.79 1016.22 1857.19 1020.32 1847.59 1019.98C1839.41 1019.68 1832.04 1016.32 1826.6 1010.22C1819.56 1002.33 1817.25 990.955 1818.2 980.659C1819.25 969.391 1824.12 958.851 1832.98 951.602ZM1874.21 978.649C1865.53 985.724 1853.76 995.159 1848.11 1004.74L1847.99 1006.47C1849.76 1007.27 1850.05 1007.43 1851.96 1007.18C1863.01 1004.6 1873.13 997.006 1879.04 987.366C1880.27 985.349 1880.98 983.894 1881.08 981.477C1879.88 979.859 1878.8 978.947 1876.7 978.613C1875.87 978.48 1875.04 978.584 1874.21 978.649ZM1834.98 963.712C1830.75 973.412 1827.99 988.027 1832.19 998.152C1832.89 999.859 1833.57 1001.28 1835.14 1002.34C1839.16 999.719 1839.75 996.8 1840.71 992.29C1842.57 983.641 1843.33 972.579 1838.7 964.761C1837.16 963.934 1836.81 963.773 1834.98 963.712Z" fill="black"/>
<path d="M1767.6 1146.17C1768.78 1146.07 1769.93 1145.95 1771.12 1146.02C1777.16 1146.38 1783.43 1151.53 1787.09 1156.07C1797.33 1168.76 1802.18 1188.89 1800.75 1205.01C1799.6 1218.12 1793.92 1231.83 1783.83 1240.41C1779.72 1241.46 1774.58 1242.74 1770.4 1241.47C1764.89 1239.8 1761.11 1234.12 1758.7 1229.19C1749.77 1210.95 1747.04 1182.44 1753.7 1163.07C1756.47 1155 1759.89 1149.93 1767.6 1146.17ZM1776.84 1164.32C1781.06 1180.26 1780.46 1197.76 1779.22 1214.12C1778.89 1218.6 1776.61 1225.05 1777.7 1229.27C1779.55 1229.3 1780.47 1228.44 1781.68 1227.08C1782 1226.73 1782.26 1226.34 1782.56 1225.97C1790.87 1211.75 1791.08 1195.72 1787.19 1179.97C1786.06 1175.38 1783.4 1168.01 1779.33 1165.35C1778.47 1164.79 1777.76 1164.62 1776.84 1164.32ZM1768.89 1160.6C1764.47 1163.77 1762.77 1169.05 1761.78 1174.26C1758.93 1189.15 1763.03 1206.48 1766.95 1220.78L1768.95 1221.57C1773.53 1215.42 1771.34 1172.37 1770 1163.91C1769.8 1162.66 1769.39 1161.75 1768.89 1160.6Z" fill="black"/>
<path d="M1483.39 1384.46C1489.4 1383.47 1495.15 1383.88 1500.2 1387.68C1510.2 1395.22 1511.55 1414.33 1513.29 1426.02C1522.12 1422.59 1531.99 1418.76 1541.38 1422.64C1555.65 1428.55 1547.43 1442.27 1551.8 1452.64C1557.01 1456.88 1565.03 1452.77 1571.33 1452.89C1577.3 1453 1582.85 1455.99 1586.95 1460.26C1592.41 1465.92 1596.47 1473.65 1595.96 1481.73C1595.57 1488.1 1592.36 1493.96 1587.59 1498.08C1582.17 1502.77 1574.21 1505.64 1567.04 1504.88C1563.85 1504.54 1561.66 1503.37 1559.66 1500.82L1560.1 1498.91C1563.97 1495.65 1569.34 1494.41 1573.93 1492.43C1577.69 1490.82 1583.03 1488.47 1584.19 1484.05C1585.25 1479.99 1581.47 1474.3 1579.19 1471.25C1576.73 1467.98 1572.04 1466.24 1568.09 1466.03C1552.41 1465.16 1541.61 1475.76 1531.18 1485.82C1529.05 1486.64 1528.6 1487.07 1526.43 1486.53C1524.98 1484.7 1524.3 1484.04 1524.24 1481.57C1524.06 1474.3 1536.07 1465.16 1541.11 1461.16C1541.01 1454.16 1540.76 1445.37 1539 1438.62C1538.23 1435.65 1537.41 1434.19 1534.82 1432.61C1520.99 1431.52 1517.52 1445 1506.61 1448.99C1497.41 1447.01 1504.71 1406.98 1494.62 1397.76C1492.96 1396.24 1490 1395.74 1487.85 1396.09C1484.91 1396.56 1482.57 1398.36 1480.89 1400.79C1470.75 1415.42 1476.06 1444.24 1478.51 1460.82C1479.08 1464.64 1479.14 1468.83 1476.57 1472.01C1475.51 1473.32 1475.47 1472.99 1473.95 1473.15C1471.79 1471.87 1470.7 1470.62 1469.49 1468.37C1461.53 1453.59 1461.38 1420.17 1466.4 1404.35C1469.49 1394.58 1474.62 1389.06 1483.39 1384.46Z" fill="black"/>
<path d="M1654.98 1322.18C1661.39 1321.66 1666.1 1322.16 1671.9 1325.14C1682.45 1330.59 1689.51 1340.79 1693.23 1351.8C1697.81 1365.32 1699.06 1384.35 1692.17 1397.33C1688.92 1403.45 1685.66 1406.89 1679.06 1409C1674.37 1409.03 1669.9 1408.57 1665.41 1407.14C1655.44 1403.95 1647.4 1396.82 1642.65 1387.57C1635.8 1374.19 1635.47 1354.6 1640.08 1340.49C1642.79 1332.2 1647.13 1326.08 1654.98 1322.18ZM1652.12 1337.76C1646.43 1347.82 1646.45 1364.47 1649.49 1375.51C1651.65 1383.34 1656.4 1390.99 1663.77 1394.88C1666.93 1396.55 1670.46 1397.32 1673.9 1398.12C1674.89 1397.25 1675.71 1396.96 1675.85 1395.55C1676.66 1387.92 1660.39 1345.1 1655.24 1339.59C1654.3 1338.58 1653.35 1338.26 1652.12 1337.76ZM1665.57 1335.09C1670.88 1347.54 1676.04 1359.86 1680.17 1372.76C1681.16 1375.84 1682.5 1383.05 1684.72 1384.85L1685.94 1384.45C1688.67 1371.12 1686.04 1355.85 1678.41 1344.39C1676.23 1341.12 1672.1 1336 1667.96 1335.28C1667.05 1335.13 1666.55 1335.13 1665.57 1335.09Z" fill="black"/>
<path d="M987.286 1398C989.001 1398.06 990.817 1398.13 992.478 1398.59C997.469 1400 1001.18 1405.46 1003.65 1409.72C1009.37 1419.56 1017.68 1446.77 1014.16 1457.74C1013.22 1460.67 1011.4 1462.67 1008.8 1464.17C997.912 1463.59 999.847 1420.91 990.662 1411.16C988.688 1410.53 988.224 1410.15 986.332 1411.33C973.653 1419.25 980.715 1453.48 976.168 1466.08C975.567 1467.75 975.088 1467.84 973.594 1468.54C963.723 1466.84 947.477 1436.7 939.387 1428.17C936.547 1425.18 929.271 1420.74 925.123 1421.15C923.798 1421.27 923.548 1422 922.72 1422.91C920.274 1436.06 937.16 1457.21 942.88 1469.32L942.054 1471.39C941.799 1471.48 941.554 1471.61 941.287 1471.67C934.466 1473.05 915.422 1458.48 908.859 1454.86C908.449 1454.84 908.041 1454.79 907.631 1454.8C904.975 1454.89 904.716 1454.91 903.094 1456.83C902.727 1463.13 908.69 1469.64 911.974 1474.69C914.347 1478.33 917.156 1481.78 916.208 1486.3C905.633 1493.19 891.038 1478.13 880.531 1480.45C882.031 1486.24 889.439 1488.1 892.903 1492.36C894.018 1493.73 893.861 1494.2 893.696 1495.84C892.32 1497.6 891 1498.56 888.75 1498.9C882.863 1499.76 875.353 1494.93 871.009 1491.2C867.233 1487.97 863.175 1483.78 863.004 1478.48C862.936 1476.4 863.731 1474.51 865.229 1473.05C871.625 1466.85 885.467 1468.04 893.844 1468.01C892.52 1463.38 891.07 1458.73 892.06 1453.87C892.693 1450.78 894.148 1447.95 896.917 1446.26C903.079 1442.51 910.341 1444.53 916.862 1445.94C914.846 1438.52 911.291 1429.92 911.824 1422.2C912.096 1418.28 913.375 1414.28 916.523 1411.71C920.023 1408.85 924.628 1408.24 928.999 1408.76C945.113 1410.66 955.743 1428.17 964.857 1439.87C965.938 1431.29 966.676 1421.76 970.122 1413.75C973.752 1405.33 979.152 1401.42 987.286 1398Z" fill="black"/>
<path d="M1703.04 1223C1706.19 1223.03 1709.62 1223.39 1712.65 1224.25C1722.1 1226.96 1729.47 1233.85 1734.09 1242.26C1742.74 1258.01 1744.22 1278.12 1738.91 1295.16C1735.32 1306.68 1728.77 1317.18 1717.76 1323C1716 1322.46 1714.24 1321.84 1712.61 1320.98C1697.18 1312.88 1686.34 1298.63 1680.97 1282.41C1676.38 1268.54 1676.93 1252.62 1683.87 1239.54C1688.02 1231.72 1694.36 1225.51 1703.04 1223ZM1697.47 1238.6C1690.53 1247.62 1687.57 1260.05 1689.21 1271.24C1691.05 1283.74 1699.37 1295.51 1707.32 1305.04L1710.42 1306.75C1712.1 1304.98 1712.27 1303.77 1712.25 1301.35C1712.18 1294.46 1702.25 1242.74 1698.75 1239.52C1698.36 1239.17 1697.89 1238.91 1697.47 1238.6ZM1708.41 1235.16C1711.91 1247.01 1714.89 1258.99 1717.36 1271.09C1719.31 1280.81 1719.79 1293.88 1723.95 1302.85C1726.13 1302.51 1726.72 1301.57 1727.87 1299.74C1728.15 1299.31 1728.38 1298.86 1728.64 1298.43C1733.42 1282.53 1734.98 1265.69 1726.82 1250.5C1723.19 1243.74 1716.96 1237.71 1709.42 1235.39C1709.09 1235.29 1708.74 1235.23 1708.41 1235.16Z" fill="black"/>
<path d="M1877.02 1215.11C1882.34 1214.9 1887.85 1214.99 1893.15 1215.48C1899.82 1216.08 1907.61 1218.17 1911.88 1223.69C1914.87 1227.56 1915.5 1232.42 1914.66 1237.12C1912.46 1249.43 1902.22 1261.59 1892.23 1268.67C1878.88 1278.14 1863.63 1280.69 1847.72 1277.98C1838.74 1275.86 1829.96 1272.07 1822.51 1266.63C1817.96 1263.3 1812.69 1258.57 1812.05 1252.64C1811.66 1249.07 1813.51 1245.62 1815.76 1242.97C1829 1227.41 1857.18 1217.16 1877.02 1215.11ZM1876.5 1226.17L1875.03 1226.59C1868.14 1228.48 1860.97 1229.21 1854.15 1231.34C1844.14 1234.47 1836 1240.65 1826.82 1245.32C1827.15 1245.28 1827.49 1245.25 1827.84 1245.2C1838.85 1243.73 1866.51 1231.02 1876.41 1236.76C1876.65 1236.9 1876.84 1237.1 1877.06 1237.28C1876.43 1239.76 1874.82 1240.56 1872.6 1241.86C1864.61 1246.54 1853.7 1249.41 1844.87 1252.24C1841.41 1254.17 1833.87 1255.52 1831.66 1258.39C1834.43 1262.58 1841.75 1264.8 1846.49 1265.79C1860.01 1268.62 1875.06 1266.4 1886.72 1258.82C1894.29 1253.91 1900.64 1246.72 1902.39 1237.68C1902.85 1235.28 1902.86 1232.85 1901.4 1230.76C1898.87 1227.15 1893.24 1226.17 1889.17 1225.83C1885.04 1225.49 1880.63 1225.84 1876.5 1226.17Z" fill="black"/>
<path d="M536.234 841C539.423 841.243 541.713 841.512 544.594 842.95C545.201 843.93 545.925 844.49 545.669 845.712C544.72 850.24 537.181 854.882 533.692 857.877C532.755 860.914 531.838 864.196 531.401 867.344C529.199 883.168 542.778 907.39 552.275 919.433C554.938 922.811 556.917 924.993 561.305 925.468C561.915 925.037 562.705 924.788 563.133 924.175C565.483 920.804 560.908 900.7 574.391 887.584C578.109 883.967 584.113 880.802 589.446 881.339C591.565 881.552 592.54 881.967 593.826 883.623C592.998 889.987 582.836 896.213 578.04 900.083C576.668 906.265 575.492 912.484 574.511 918.74C584.347 913.413 593.378 905.625 604.942 904.75C607.993 904.519 610.47 904.654 612.882 906.701L613 908.693C606.629 919.468 585.42 925.381 574.879 932.006L573.899 932.63C576.159 938.144 580.274 942.524 582.435 948.189C582.6 948.624 582.748 949.065 582.912 949.501C584.959 954.933 584.591 961.451 584.746 967.229C580.087 975.229 576.106 980.903 568.92 986.769C567.895 987.388 566.859 987.986 565.812 988.565C548.761 997.964 524.149 999.289 505.683 993.631C499.496 991.735 493.211 988.46 490.237 982.373C488.075 977.947 488.518 973.068 490.311 968.603C498.35 948.585 521.062 933.604 539.769 925.127C534.722 918.18 529.434 911.556 523.605 905.253C516.51 897.581 503.765 884.82 492.901 883.357C486.47 882.491 479.699 883.468 473.203 883.071C469.9 882.87 467.443 882.482 465.152 879.918C465.047 878.515 464.725 877.889 465.535 876.624C468.223 872.429 475.26 870.457 479.898 869.484C495.77 866.156 509.103 875.802 521.734 883.932C520.813 876.703 519.548 868.997 520.881 861.746C522.649 852.145 528.608 846.309 536.234 841ZM542.258 939.021C538.117 940.594 534.106 942.115 530.24 944.321C534.148 952.32 541.953 979.058 546.658 982.997C550.863 981.095 555.184 979.319 559.208 977.054C555.175 969.616 546.026 942 542.258 939.021ZM520.364 951.623C516.19 956.331 512.888 959.836 513.117 966.585C513.32 972.537 515.759 977.108 520.186 981.041C522.62 983.203 525.428 983.871 528.577 984.314C531.382 984.028 532.912 984.456 534.873 982.332C534.895 978.628 524.891 955.213 522.398 952.183L520.364 951.623ZM554.228 938.836C554.284 946.563 561.243 961.738 566.985 967.038C568.408 968.351 568.972 968.189 570.787 968.525C572.578 963.626 571.844 956.243 569.747 951.513C567.33 946.064 562.888 941.468 557.163 939.525C556.209 939.201 555.216 939.016 554.228 938.836Z" fill="black"/>
<path d="M758.066 701C767.003 701.191 773.408 703.308 780.421 709.075C795.899 721.806 804.641 745.029 806.544 764.473C807.35 772.709 807.735 784.059 801.923 790.636C795.187 798.257 781.651 795.088 772.636 795.568C768.304 798.263 770.704 820.176 767.326 827.017C766.232 829.234 764.481 831.225 761.957 831.771C755.431 833.185 745.802 827.721 740.438 824.25C725.53 813.79 697.782 797.421 691.362 779.906C688.833 773.006 690.095 768.752 692.949 762.409C708.445 752.587 725.289 758.194 741.939 761.59C739.53 748.443 736.737 733.831 740.713 720.697C743.601 711.149 749.45 705.524 758.066 701ZM760.473 714.299C755.828 716.33 753.081 718.293 751.119 723.11C746.106 735.419 758.498 768.315 750.291 774.735C738.381 776.533 711.12 764.419 702.672 770.819C701.819 772.998 701.653 774.07 702.605 776.299C707.222 787.111 730.309 801.651 740.046 808.936C745.316 812.741 750.835 817.515 757.397 818.591C759.231 817.9 759.822 817.921 760.648 815.996C764.885 806.133 753.087 789.781 766.76 783.734C776.033 779.633 789.549 788.369 794.205 776.616C798.467 765.855 793.159 749.944 788.371 740.044C784.015 731.04 775.59 718.13 765.429 715.215C763.821 714.753 762.128 714.525 760.473 714.299Z" fill="black"/>
<path d="M475.906 1281.15C484.567 1280.37 491.122 1282.56 497.801 1288.22C527.107 1313.05 549.555 1409.78 553.387 1447.14C557.7 1440.15 560.721 1432.09 564.435 1424.72C571.802 1410.1 585.184 1387.05 600.612 1379.76C603.549 1378.37 606.543 1377.84 609.637 1379.06C612.145 1380.05 613.692 1381.74 614.674 1384.2C622.494 1403.75 608.809 1500.09 599.983 1518.95C598.82 1521.44 597.626 1522.86 595.02 1523.69L593.188 1522.73C589.94 1518.82 590.327 1509.95 590.898 1504.99C592.29 1492.89 596.752 1480.32 599.197 1468.31C603.067 1449.3 604.292 1430.17 605.041 1410.83C605.265 1405.06 606.473 1395.34 602.352 1390.9C601.272 1391 601.207 1390.93 600.057 1391.47C594.661 1393.96 588.393 1405.47 585.055 1410.54C566.056 1439.44 557.082 1467.85 556.548 1502.4C556.426 1510.26 558.47 1520.02 555.875 1527.45C555.041 1529.83 554.149 1531.89 551.858 1533L550.444 1532.32C546.001 1526.7 545.489 1522.02 545.061 1515.14C543.892 1499.62 545.66 1483.96 544.52 1468.38C543.339 1452.25 540.228 1436.77 537.153 1420.93C529.329 1380.62 520.112 1338.27 495.731 1304.24C492.202 1299.32 487.37 1292.09 481.039 1291.08C479.112 1291.58 478.25 1292.05 477.112 1293.74C460.443 1318.49 498.923 1443.75 507.859 1474.5C511.948 1488.58 517.376 1501.85 519.74 1516.5C520.391 1520.54 520.933 1524.87 518.444 1528.36C516.025 1529.41 515.635 1529.28 512.999 1528.86C511.244 1527.68 510.384 1526.62 509.434 1524.71C502.829 1511.4 500.231 1490.08 496.197 1475.25C485.904 1437.43 450.222 1326.02 464.205 1290.51C466.124 1285.64 471.392 1283.06 475.906 1281.15Z" fill="black"/>
<path d="M1898.6 1322C1900.44 1322.03 1902.34 1322.05 1904.11 1322.6C1909.6 1324.31 1913.46 1329.35 1915.91 1334.29C1926.1 1354.82 1928.32 1418.59 1921.16 1440.85C1928.28 1435.94 1933.08 1420.67 1938.12 1413.27C1947.79 1399.11 1961.21 1386.12 1973.65 1374.35C1989.68 1359.19 2009.77 1341.22 2033.4 1342.43C2037.62 1342.65 2041.81 1343.84 2044.64 1347.19C2047.82 1350.95 2048.32 1356.18 2047.85 1360.9C2044.83 1390.84 1991.05 1449.26 1971.43 1474.31C1964.78 1482.79 1950.84 1504.16 1943.41 1509.35C1941.18 1510.9 1939.44 1511.17 1936.81 1510.81C1935.78 1509.69 1935.26 1509.48 1935.01 1507.91C1934.24 1503.24 1937.96 1497.32 1940.37 1493.47C1946.46 1483.71 1954.26 1474.72 1961.43 1465.74C1975.39 1448.27 1989.84 1430.99 2003.1 1412.98C2009.47 1404.34 2035.32 1369.47 2033.9 1360.23C2034.1 1359.75 2034.32 1359.29 2034.48 1358.82C2035.1 1356.79 2034.77 1356.4 2033.79 1354.66C2033.02 1354.44 2032.72 1354.3 2031.96 1354.21C2022.69 1353.18 2006.09 1363.55 1999.53 1369.52C1995.12 1373.52 1990.21 1376.91 1985.71 1380.81C1972.56 1392.2 1959.32 1405.79 1949.12 1419.88C1941.81 1429.98 1930.36 1448.13 1924.77 1459.19C1921.61 1465.46 1919.75 1472.61 1916.32 1478.69C1914.98 1481.08 1913.8 1482.62 1911.57 1484.21C1910.18 1484.21 1909.51 1484.61 1908.49 1483.46C1906.22 1480.93 1906.14 1476.78 1906.16 1473.55C1906.2 1466.62 1907.72 1459.34 1908.64 1452.45C1910.97 1434.67 1913.92 1416.71 1914.16 1398.75C1914.33 1385.6 1913.17 1345.25 1903.9 1337.04C1901.99 1335.35 1900.84 1335.45 1898.41 1335.59C1876.71 1348 1870.69 1432.71 1870.44 1456.51C1870.3 1469.58 1873.81 1502.92 1869.62 1512.97C1868.68 1515.22 1868.04 1516.11 1865.79 1517C1862.85 1515.84 1861.49 1513.32 1860.3 1510.51C1852.61 1492.53 1860.21 1411.62 1864.41 1389.14C1867.09 1374.84 1870.95 1360.26 1876.73 1346.92C1881.3 1336.37 1887.49 1326.42 1898.6 1322Z" fill="black"/>
<path d="M1139.84 1546.02C1140.18 1546.01 1140.52 1546 1140.86 1546C1141.42 1546.01 1141.99 1546.03 1142.55 1546.04C1153.13 1546.2 1163.69 1550.1 1174.25 1551.4C1197.16 1554.22 1220.56 1555.48 1243.62 1556.29C1253.51 1556.65 1275.82 1551.5 1283.62 1555.4C1284.58 1556.68 1284.95 1557.65 1284.99 1559.22C1285.39 1572.29 1267.29 1611.26 1258.33 1620.83C1256.79 1622.43 1255.08 1623.8 1253.28 1625.11C1232.62 1640.05 1197.69 1638.12 1174.05 1634.2C1159.47 1631.78 1141.58 1627.54 1132.71 1614.47C1124.76 1602.77 1124.97 1583.3 1127.75 1569.98C1129.5 1561.56 1132.33 1550.93 1139.84 1546.02Z" fill="black"/>
<path d="M1662.94 334.044C1667.36 333.829 1670.76 334.349 1674.52 336.843C1684.84 343.702 1686.09 360.203 1687.99 371.34C1697.34 363.537 1707.21 356.177 1719.47 353.756C1723.61 352.94 1727.96 352.447 1731.53 355.134C1733.39 356.531 1733.78 358.102 1734.18 360.245C1730.71 366.065 1719.15 366.777 1712.88 369.606C1691.52 379.25 1673.85 407.296 1665.79 428.599C1682.67 425.781 1697.92 424.452 1714.67 429.141C1726.48 432.445 1740.87 439.493 1746.79 450.807C1749.32 455.659 1749.7 461.086 1747.81 466.224C1741.7 482.863 1718.78 497.493 1703.21 504.258C1679.83 514.422 1642.83 523.636 1618.06 513.807C1616.95 513.3 1615.85 512.774 1614.76 512.229C1604.97 507.293 1600.45 500.765 1597.11 490.688C1598.93 484.108 1602.06 478.375 1605.53 472.547C1598.53 461.058 1592.05 443.454 1584.45 434.007C1583.02 432.215 1581.26 431.273 1579.23 430.253C1577.23 429.245 1574.41 428.136 1572.72 426.682C1570.84 425.064 1571.04 424.28 1571 422.017C1572.08 420.474 1572.21 419.943 1573.98 419.072C1577.86 417.172 1582.68 417.503 1586.6 419.084C1600.46 424.664 1604.22 443.578 1609.86 455.404C1611.31 458.435 1611.84 459.311 1614.9 460.534C1625.68 453.015 1607.4 415.102 1604.62 404.266C1604 401.839 1604.29 399.906 1604.91 397.522C1606.5 395.598 1606.69 395.472 1609.09 394.763C1612.42 395.243 1614.59 396.267 1617.01 398.642C1627.7 409.094 1628.69 429.84 1629 443.73C1635.97 439.552 1642.32 436.606 1650.2 434.468C1652.99 427.205 1655.72 419.768 1659.17 412.782C1662.79 405.435 1667.24 398.29 1670.34 390.72C1676.04 376.86 1676.01 363.206 1670.33 349.414C1666.05 348.38 1660.19 347.577 1657.4 343.843C1656.47 342.581 1656.94 341.616 1657.07 340.149C1658.65 337.452 1660.51 335.962 1662.94 334.044ZM1658.5 443.738C1653.41 444.865 1649.44 445.645 1646.65 450.403C1639.76 462.159 1645.09 488.129 1649.05 500.848C1649.44 502.078 1649.74 502.757 1650.6 503.708C1654.19 503.982 1657.39 503.505 1660.93 502.959C1666.03 502.159 1671.03 501.388 1675.99 499.911C1673.3 492.047 1670.05 483.933 1668.34 475.803C1666.99 469.377 1669.14 447.447 1663.43 444.665C1661.7 443.821 1660.38 443.841 1658.5 443.738ZM1687.79 438.942C1689.6 453.282 1691.46 476.975 1697.79 489.913C1699.71 491.103 1700.79 491.727 1703.12 491.224C1706.08 490.582 1709.19 488.979 1711.93 487.685C1713.74 485.85 1714.66 485.456 1714.73 482.652C1714.89 476.647 1709.39 445.545 1705.68 442.146C1701.85 438.648 1692.63 438.585 1687.79 438.942ZM1615.44 479.277C1613.07 483.677 1609.78 489.035 1611.3 494.198C1611.39 494.501 1611.5 494.799 1611.61 495.092C1611.74 495.385 1611.88 495.671 1612.03 495.951C1612.17 496.231 1612.34 496.503 1612.51 496.766C1612.69 497.03 1612.87 497.285 1613.07 497.53C1613.28 497.775 1613.49 498.01 1613.72 498.235C1613.94 498.459 1614.17 498.673 1614.42 498.874C1614.66 499.077 1614.92 499.266 1615.18 499.443C1615.44 499.62 1615.72 499.783 1616 499.933C1617.74 500.867 1619.66 501.569 1621.51 502.284L1623.73 501.665C1625.56 496.475 1622.14 488.259 1619.74 483.484C1618.69 481.388 1617.58 480.277 1615.44 479.277Z" fill="black"/>
<path d="M1905.38 1075.09C1905.58 1075.09 1905.79 1075.08 1905.99 1075.08C1907.76 1075.01 1909.7 1074.83 1911.39 1075.46C1913.67 1076.31 1915.53 1078.23 1916.35 1080.5C1917.74 1084.38 1916.36 1088.97 1914.6 1092.5C1920.49 1091.76 1926.08 1089.67 1932.07 1089.82C1932.21 1090.03 1932.38 1090.2 1932.5 1090.43C1935.23 1095.28 1933.64 1104.95 1932.37 1110.32C1928.3 1127.55 1919.78 1150.04 1903.63 1159.47C1890.17 1167.33 1876.55 1165.28 1862.41 1161.29C1861.98 1168.19 1802.28 1249.79 1792.22 1265.01C1781.24 1281.64 1770.04 1298.85 1760.51 1316.33C1775.4 1306.92 1790.73 1300.85 1808.46 1299.47C1816.14 1298.87 1826.12 1298.66 1832.11 1304.27C1835.17 1307.14 1836.34 1311.41 1836.23 1315.51C1836 1323.79 1830.83 1330.84 1824.82 1336.14C1812.84 1346.69 1792.8 1353.8 1776.8 1352.38C1765.18 1351.36 1756.64 1345.42 1749.55 1336.58C1743.99 1345.51 1739.69 1355.41 1734.74 1364.7C1708.04 1414.82 1689.51 1460.57 1669.92 1513.73C1665.53 1528.56 1660.49 1543.1 1657.11 1558.21C1653.89 1572.58 1652.06 1593.84 1646.66 1606.8C1645.28 1610.11 1643.88 1612.61 1640.42 1614C1639.17 1613.68 1638.24 1613.8 1637.46 1612.67C1632.1 1604.9 1643.04 1569.65 1645.72 1560.1C1654.23 1529.83 1662.54 1498.75 1673.46 1469.27C1679.16 1453.9 1686.15 1439.28 1692.85 1424.33C1700.34 1407.48 1708.23 1390.81 1716.52 1374.33C1724.81 1357.85 1733.49 1341.57 1742.57 1325.51C1751.63 1309.45 1761.08 1293.61 1770.92 1278C1780.75 1262.38 1790.95 1247.01 1801.52 1231.88C1809.57 1220.26 1855.13 1161.76 1856 1154.02C1855.76 1150.1 1854.05 1146.18 1853.08 1142.36C1850.12 1130.79 1852.83 1119.91 1858.38 1109.53C1868.03 1091.48 1886.3 1080.86 1905.38 1075.09ZM1896.72 1089.05C1881.96 1098.76 1869.14 1107.56 1865.48 1126.02C1864.7 1129.96 1863.38 1136.91 1865.34 1140.54C1865.98 1141.73 1866.85 1141.5 1868.06 1141.74C1873.87 1139.37 1880.68 1132.32 1887.1 1133.77C1888.6 1135.03 1889.18 1135.2 1889.86 1137.11C1887.55 1142.34 1878.23 1147.28 1873.02 1149.58L1872.77 1152.14C1875.17 1154.07 1876.71 1154.3 1879.78 1154.03C1890.49 1153.07 1899.96 1147.05 1906.55 1138.75C1911.92 1131.98 1918.81 1119.19 1917.83 1110.4C1917.76 1109.86 1917.68 1109.33 1917.61 1108.79C1913.6 1111.63 1908.43 1112.73 1903.56 1112.06C1901.32 1111.75 1900.21 1110.87 1898.6 1109.44C1897.3 1106.7 1896.71 1104.78 1897.83 1101.82C1899.33 1097.87 1902.46 1094.39 1902.39 1090.06L1901.29 1088.88L1896.72 1089.05ZM1804.37 1311.65C1793.35 1313.97 1783.18 1316.38 1773.62 1322.57C1779.61 1321.2 1793.67 1316.38 1799.26 1319.41C1799.44 1320.85 1799.77 1321.02 1798.86 1322.3C1793.01 1330.55 1763.27 1331.33 1758.31 1335.39C1771.08 1341.8 1782.89 1342.61 1796.43 1338.06C1805.11 1335.14 1818.77 1328.89 1823.07 1320.41C1824.26 1318.05 1824.08 1316.79 1823.5 1314.31C1821.1 1311.8 1818.98 1310.85 1815.45 1310.76C1811.8 1310.69 1808.01 1311.26 1804.37 1311.65Z" fill="black"/>
<path d="M1296.53 230C1301.64 230.177 1306.83 231.95 1310.68 235.386C1321.64 245.192 1321.87 264.021 1322.29 277.633C1334.28 271.149 1342.08 262.269 1356.55 260.949C1364.39 260.234 1375.22 261.494 1381.27 266.999C1384.61 270.033 1385.94 274.056 1386 278.496C1386.22 295.519 1373.59 310.285 1362.61 321.845C1369.18 326.705 1378.77 332.325 1382.52 339.713C1385.05 344.682 1385.73 350.187 1383.68 355.451C1380.76 362.985 1373.07 368.677 1365.82 371.632C1354.5 376.252 1344.61 374.431 1333.76 369.887C1333.12 380.789 1332.56 393.21 1326.31 402.632C1323.97 406.161 1320.78 409.191 1316.45 409.846C1310.63 410.727 1305.68 407.688 1301.15 404.442C1293.47 395.402 1288.19 386.314 1284.25 375.098C1279.92 380.471 1275.41 385.732 1269.6 389.568C1263.17 393.818 1251.88 395.46 1244.34 393.621C1226.05 389.161 1241.68 368.099 1237.65 361.287C1231.75 360.932 1225.36 360.841 1219.65 359.289C1214.57 357.911 1208.4 354.872 1205.99 349.869C1204.4 346.542 1204.92 342.7 1206.18 339.364C1210.85 327.043 1220.85 321.694 1232.2 316.876C1228.15 312.044 1224.35 307.596 1222.4 301.465C1220.16 294.436 1220.77 287.253 1224.38 280.779C1227.4 275.347 1232.05 271.701 1238.06 270.113C1250.8 266.748 1261.53 274.302 1272.12 280.209C1272.51 269.412 1272.67 257.743 1277.01 247.656C1281.01 238.346 1287.42 233.562 1296.53 230ZM1296.99 242.429C1279.42 257.706 1287.98 295.035 1275.5 294.95C1264.84 294.877 1248.75 273.985 1238.27 282.508C1235.36 284.875 1233.11 289.843 1232.96 293.554C1232.76 298.142 1235.5 302.021 1238.64 305.071C1243.41 309.732 1252.88 314.36 1254.06 321.208C1253.15 324.05 1252.4 325.605 1249.59 326.921C1240.67 331.1 1223.28 328.814 1218.88 339.714C1218.09 341.695 1218.47 342.516 1218.94 344.522C1221.71 347.706 1224.78 348.873 1228.98 349.119C1238.34 349.663 1254.61 339.301 1261.6 346.637C1262.93 350.469 1262.06 353.169 1261.17 357.028C1256.4 362.242 1247.67 369.958 1247.91 377.63C1247.96 379.337 1248.04 380.061 1249.24 381.332C1250.79 382.987 1253.39 383.531 1255.56 383.241C1266.85 381.728 1282.82 352.504 1292.27 358.37C1296.84 361.205 1297.81 374.707 1300.11 380.071C1302.29 386.092 1303.66 393.678 1309.78 396.759C1312.34 396.61 1313.53 396.477 1315.36 394.552C1318.73 391.012 1321.61 382.378 1321.06 377.526C1320.45 372.307 1317.98 366.624 1321.38 361.906C1323.33 359.208 1326.11 357.938 1329.36 357.56C1342.06 356.077 1360.87 367.347 1370.49 354.256C1371.97 352.242 1372.54 349.037 1372.17 346.542C1371.51 342.183 1365.33 338.907 1361.8 336.784C1355.76 333.144 1342.95 328.028 1340.65 320.757C1340.2 319.329 1340.83 318.623 1341.34 317.307C1345.44 313.9 1350.8 313.213 1355.37 310.617C1363.65 305.907 1373.36 292.966 1374.14 283.228C1374.35 280.688 1373.93 278.124 1372.12 276.206C1368.67 272.546 1362.06 272.82 1357.49 273.244C1336.69 275.176 1319.35 303.291 1313.53 299.035C1310.05 296.485 1309.43 290.393 1309.1 286.451C1308.05 273.893 1312.8 253.506 1302.23 244.116C1300.68 242.727 1298.97 242.567 1296.99 242.429Z" fill="black"/>
<path d="M1302.41 306C1304.58 306.267 1306.99 306.645 1309.03 307.442C1313.63 309.238 1317.45 313.301 1319.1 317.903C1320.58 322.033 1320.19 326.806 1318.24 330.717C1315.49 336.236 1310.94 339.047 1305.29 341C1300.41 340.575 1295.75 339.625 1292.3 335.826C1287.73 330.777 1287.91 324.422 1288.05 318.093C1288.95 316.431 1289.85 314.763 1290.86 313.165C1293.88 308.344 1296.96 307.146 1302.41 306ZM1299.52 316.739C1298.06 319.57 1296.66 322.245 1298.05 325.468C1298.99 327.635 1301.33 329.343 1303.61 329.829C1304.93 330.108 1306.25 330.275 1307.58 330.388C1308.81 327.354 1310.03 324.057 1308.49 320.866C1307.48 318.776 1305.35 317.513 1303.15 317.05C1301.97 316.802 1300.72 316.751 1299.52 316.739Z" fill="black"/>
<path d="M773.812 1149.2C781.956 1148.59 789.211 1149.13 796.162 1154.08C801.563 1157.93 804.499 1163.76 805.444 1170.24C807.324 1183.12 802.48 1196.35 794.957 1206.65C780.013 1227.13 757.974 1236.26 733.75 1240.13C735.945 1251.59 749.115 1295.52 754.858 1303.92C759.527 1301.2 763.516 1287.54 766.27 1282.43C773.684 1268.68 785.287 1254.79 800.962 1250.58C807.919 1248.7 814.984 1249.65 821.099 1253.51C827.503 1257.53 831.479 1263.31 832.799 1270.79C834.805 1282.13 831.17 1293.73 824.62 1302.96C810.349 1323.04 784.738 1332.18 761.468 1336.19C765.982 1358.39 769.754 1386.97 777.83 1407.73C782.677 1391.83 792.316 1373.92 807.426 1365.68C813.019 1362.63 819.661 1361.07 825.89 1363.01C830.025 1364.3 833.59 1367.14 835.434 1371.11C838.101 1376.85 836.973 1383.61 834.938 1389.36C826.967 1411.88 801.952 1426.91 781.569 1436.52C784.023 1451.15 793.261 1529.04 788.037 1537.96C787.009 1539.72 786.564 1539.63 784.714 1540C782.879 1538.73 781.775 1538 781.066 1535.82C778.288 1527.26 778.73 1516.66 777.829 1507.69C775.723 1486.74 773.844 1464.45 768.601 1444.04L768.334 1443.03C760.999 1445.36 752.973 1446.54 745.329 1447.28C727.888 1448.98 702.967 1448.98 688.871 1436.73C688.505 1436.42 688.148 1436.1 687.8 1435.77C687.45 1435.44 687.11 1435.1 686.779 1434.75C686.447 1434.4 686.124 1434.04 685.811 1433.68C685.497 1433.32 685.193 1432.95 684.898 1432.57C684.603 1432.19 684.319 1431.8 684.044 1431.4C683.769 1431.01 683.504 1430.61 683.25 1430.2C682.996 1429.79 682.752 1429.38 682.518 1428.96C682.285 1428.53 682.062 1428.11 681.85 1427.68C681.639 1427.24 681.438 1426.8 681.249 1426.36C681.059 1425.92 680.881 1425.48 680.715 1425.03C680.548 1424.57 680.393 1424.12 680.25 1423.66C680.106 1423.2 679.974 1422.74 679.854 1422.27C679.734 1421.81 679.627 1421.34 679.53 1420.87C679.434 1420.39 679.35 1419.92 679.278 1419.45C679.206 1418.97 679.146 1418.49 679.099 1418.01C679.051 1417.53 679.015 1417.05 678.992 1416.57C678.974 1416.13 678.967 1415.68 678.972 1415.23C678.976 1414.78 678.992 1414.34 679.019 1413.9C679.047 1413.45 679.085 1413 679.135 1412.56C679.185 1412.11 679.247 1411.67 679.319 1411.23C679.392 1410.78 679.475 1410.35 679.57 1409.91C679.665 1409.48 679.771 1409.04 679.889 1408.6C680.006 1408.18 680.134 1407.75 680.273 1407.33C680.412 1406.9 680.562 1406.47 680.722 1406.06C680.883 1405.64 681.054 1405.23 681.235 1404.83C681.417 1404.41 681.609 1404.01 681.811 1403.61C682.013 1403.21 682.226 1402.82 682.449 1402.44C682.671 1402.04 682.903 1401.66 683.145 1401.29C683.386 1400.92 683.637 1400.55 683.899 1400.18C684.159 1399.82 684.429 1399.46 684.707 1399.11C684.986 1398.77 685.274 1398.42 685.57 1398.09C685.866 1397.75 686.171 1397.43 686.484 1397.11C692.117 1391.41 699.518 1388.84 707.423 1388.73C730.677 1388.38 750.264 1403.04 766.138 1418.44C762.181 1404.36 760.121 1389.63 757.243 1375.29C754.554 1361.89 751.037 1349.06 746.887 1336.05C743.207 1336.89 739.519 1337.69 735.821 1338.45C715.067 1342.65 690.12 1344.35 671.697 1331.79C663.413 1326.15 657.178 1317.63 655.607 1307.59C654.341 1299.48 656.215 1291.39 661.352 1284.95C666.893 1278 675.432 1273.66 684.198 1272.7C713.388 1269.53 723.096 1292.52 742.316 1307.32C742.612 1307.55 742.918 1307.77 743.219 1307.99C733.599 1286.45 727.417 1262.82 720.185 1240.35C712.971 1239.93 705.744 1239.53 698.575 1238.6C680.245 1236.23 653.08 1228.84 641.587 1212.98C637.884 1207.88 636.156 1201.75 637.4 1195.48C638.929 1187.79 644.501 1181.56 651.064 1177.61C660.721 1171.8 672.558 1171.05 683.243 1174.08C703.649 1179.84 712.743 1194.06 722.412 1211.54C725.166 1202.03 727.843 1192.35 732.251 1183.44C741.04 1165.66 755.439 1155.51 773.812 1149.2ZM775.226 1161.31C761.225 1165.81 750.105 1174.43 743.298 1187.65C736.726 1200.39 734.932 1214.77 731.733 1228.59C738.101 1227.74 743.885 1226.63 750.038 1224.78C765.501 1218.47 782.943 1208.56 789.911 1192.51C792.878 1185.68 794.783 1176.35 792.113 1169.24C790.854 1165.89 788.374 1163.05 784.983 1161.78C782.047 1160.69 778.298 1161.01 775.226 1161.31ZM681.185 1284.6C675.175 1287.33 669.278 1290.8 666.629 1297.24C664.955 1301.32 665.425 1305.7 667.26 1309.64C671.27 1318.22 680.128 1324.43 688.925 1327.41C700.109 1331.2 711.927 1330.18 723.377 1328.32C729.023 1327.24 734.514 1325.94 740.055 1324.42C727.319 1308.16 712.701 1287.19 690.422 1284.44C687.332 1284.06 684.27 1284.32 681.185 1284.6ZM808.727 1261.09C796.47 1263.58 788.017 1269.59 781.124 1279.95C774.209 1290.35 765.225 1307.93 762.876 1320.26L763.483 1321.45C767.335 1322.14 771.415 1320.66 775.141 1319.67C792.359 1315.22 807.788 1307.71 817.258 1291.85C820.623 1286.2 824.272 1277.9 822.61 1271.28C821.698 1267.65 818.425 1264.35 815.143 1262.72C813.188 1261.74 810.863 1261.44 808.727 1261.09ZM664.073 1183.51C657.3 1185.93 653.852 1188.36 650.873 1195.05C649.461 1198.22 648.968 1200.84 650.322 1204.15C653.709 1212.45 666.706 1218.12 674.653 1221.02C683.758 1224.36 693.164 1226.44 702.761 1227.68C707.015 1228 711.278 1228.42 715.544 1228.53C707.295 1212.24 699.1 1191.9 680.445 1185.45C674.937 1183.55 669.805 1183.23 664.073 1183.51ZM705.529 1399.98C700.787 1401.48 695.526 1403.11 693.113 1407.9C691.185 1411.72 689.65 1416.49 691.108 1420.73C692.713 1425.39 697.145 1428.1 701.387 1430.05C715.162 1436.36 732.487 1436.29 747.239 1434.68C751.957 1433.75 756.774 1432.99 761.395 1431.65C749.433 1416.4 730.01 1402.27 710.237 1400.14C708.66 1399.97 707.111 1399.94 705.529 1399.98ZM818.612 1373.7C808.205 1376.16 801.283 1383.54 795.815 1392.37C791.33 1399.61 785.898 1410.44 784.925 1418.86L785.972 1419.52C787.175 1419 788.298 1418.64 789.286 1417.77C801.286 1410.71 823.132 1396.33 826.092 1381.55C826.507 1379.48 826.323 1378.22 824.991 1376.51C823.316 1374.36 821.092 1374.05 818.612 1373.7Z" fill="black"/>
<path d="M876.25 304.572C882.461 303.942 888.314 303.527 894.477 305.021C901.672 306.764 907.507 310.788 911.294 317.195C923.854 338.438 913.427 365.156 908.282 387.01C916.203 388.081 925.489 388.287 932.742 391.814C940.713 395.691 946.871 403.146 949.709 411.475C952.786 420.501 952.491 430.668 947.905 439.13C941.353 451.22 930.411 455.473 918.019 459.114C918.147 462.035 918.341 465.024 918.217 467.947C917.897 475.54 914.246 485.121 908.366 490.058C896.331 500.162 886.855 493.785 874.127 493.284C871.741 493.191 870.635 494.139 869.032 495.789C858.739 506.376 847.716 529.128 848.503 544.066C849.973 571.988 875.604 594.153 899.43 604.706C911.539 610.069 924.705 613.333 937.655 616C947.617 618.052 961.698 614.924 969.537 622.08C969.831 623.198 970.322 623.808 969.699 624.89C968.53 626.919 966.058 628.07 963.888 628.735C946.901 633.941 907.229 621.617 891.609 613.659C869.53 602.408 847.796 584.992 840.132 560.545C832.969 537.698 842.048 520.027 852.533 500.107C845.212 497.853 840.135 494.155 833.901 489.915C830.991 495.058 827.355 503.568 821.709 506.072C819.921 506.864 819.475 506.499 817.768 505.845C814.04 500.815 815.019 495.224 815.421 489.34C804.981 492.561 795.249 494.978 784.246 494.669C786.13 507.8 800.06 538.669 796.603 549.504C786.353 554.779 757.947 529.119 748.085 524.506C740.173 520.805 730.741 519.71 722.197 518.426C732.721 527.914 743.852 537.097 754.971 545.881C774.56 560.025 793.629 576.782 804.842 598.532C808.024 604.702 810.514 616.226 815.23 620.832C818.646 619.869 818.496 615.059 822.001 613.693C822.254 613.833 822.53 613.938 822.76 614.112C824.479 615.417 826.11 618.951 826.222 621.116C826.461 625.745 823.223 628.725 820.491 632.068C820.968 632.904 821.424 633.751 821.859 634.61C824.204 639.21 825.397 644.446 823.742 649.506L821.924 650C818.375 648.293 815.857 645.613 813.757 642.3C809.552 635.666 806.824 627.88 803.678 620.69C798.729 609.376 792.399 598.081 784.846 588.313C773.772 573.995 759.187 562.217 744.431 551.857C739.311 560.137 734.011 568.117 725.444 573.217C719.504 576.754 711.945 578.672 705.145 576.695C697.46 574.46 694.03 569.266 690.423 562.692C686.052 566.924 681.826 570.765 676.486 573.741C668.206 578.354 658.461 581.063 649.115 578.193C643.598 576.499 639.104 573.023 636.57 567.778C632.253 558.839 635.102 549.512 638.232 540.788C632.877 540.27 627.486 539.795 622.174 538.937C613.383 537.517 605.352 533.442 600.266 525.909C596.098 519.735 595.212 512.326 596.626 505.116C598.708 494.503 605.514 485.688 614.41 479.808C628.508 470.492 643.146 470.127 659.208 473.36C658.13 471.613 657.11 469.833 656.148 468.019C644.533 445.887 638.806 412.864 646.615 388.684C650.193 377.603 657.133 367.924 667.883 362.814C684.373 354.978 699.528 360.076 713.281 370.537C717.287 373.585 720.924 377.307 725.752 378.954C728.93 377.084 732.451 365.53 734.238 361.665C740.742 347.595 752.597 335.482 767.376 330.279C776.345 327.122 786.066 326.883 794.66 331.306C806.145 337.218 809.956 347.72 813.655 359.183C830.381 333.853 845.727 313.19 876.25 304.572ZM883.846 315.797C866.518 317.419 851.522 328.34 840.631 341.419C828.127 356.436 825.776 368.159 816.893 382.951C815.866 384.66 814.955 385.744 813.027 386.441C810.243 385.231 809.242 383.637 808.162 380.805C803.258 367.94 803.947 347.916 789.845 340.81C784.133 337.932 776.848 338.958 771.105 341.198C756.513 346.892 746.716 361.638 741.043 375.567C738.618 381.522 735.035 399.239 731.72 402.783C729.817 403.26 729.356 403.602 727.576 402.522C722.878 399.674 718.701 392.683 714.982 388.585C707.413 380.248 691.771 367.372 679.816 370.018C670.418 372.097 663.686 381.088 659.144 389.023C650.521 404.083 654.443 429.454 659.046 445.241C662.872 458.365 674.084 471.186 675.085 484.486C673.822 486.085 673.461 486.266 671.316 486.528C665.256 487.27 657.57 484.963 651.551 484.096C638.727 482.247 622.752 484.812 614.251 495.484C610.317 500.422 607.56 508.182 608.523 514.542C609.058 518.075 611.061 520.907 613.994 522.886C625.609 530.729 648.327 523.04 654.685 532.673C655.662 541.974 638.481 556.669 648.367 564.268C651.455 566.642 656.312 566.387 659.916 565.672C671.246 563.423 679.731 556.048 685.849 546.649C687.766 544.662 688.545 543.896 691.357 543.281C694.987 544.374 695.838 545.842 697.595 549.094C700.46 554.393 703.214 561.732 709.485 563.807C712.827 564.913 716.876 563.901 719.835 562.194C724.147 559.708 730.125 553.686 731.157 548.682C731.932 544.921 730.406 541.448 728.269 538.414C723.878 532.18 712.395 524.396 713.646 516.075C714.067 513.278 715.939 510.465 718.213 508.814C721.825 506.19 726.452 507.052 730.516 507.902C738.736 509.623 746.842 512.208 754.899 514.563C761.763 511.352 768.481 507.679 771.271 500.138C773.622 493.783 772.846 480.127 778.106 476.493C789.909 475.386 792.564 494.574 808.447 475.246C813.482 469.119 816.978 459.529 823.337 454.9C825.784 454.704 825.966 454.821 828.107 456.051C829.808 459.417 829.07 462.59 827.946 466.042C826.399 470.798 819.845 479.789 820.244 484.081C822.807 483.499 823.831 482.445 825.218 480.199C827.895 475.864 829.473 471.637 834.562 469.693C837.603 470.196 838.786 470.838 840.554 473.423C843.587 477.857 845.915 483.779 850.351 486.89C853.035 487.247 854.838 487.338 857.025 485.502C861.916 481.396 863.381 474.27 870.453 473.885C878.038 477.729 881.115 487.331 891.444 483.988C896.354 482.398 903.388 478.634 905.536 473.615C909.062 465.375 894.603 454.376 903.762 449.571C914.951 443.7 933.554 448.087 939.603 429.35C941.357 423.915 940.368 418.015 937.764 413.022C933.883 405.585 926.381 400.881 918.503 398.583C913.898 397.24 909.066 396.368 904.337 395.591C902.43 398.774 899.952 403.771 896.223 405.053C894.942 405.493 894.946 405.416 893.789 405.418C891.809 402.26 892.704 398.645 893.549 395.116C898.381 374.946 915.3 345.766 903.136 324.874C900.849 320.947 896.423 317.154 891.912 316.144C889.362 315.572 886.451 315.759 883.846 315.797Z" fill="black"/>
<path d="M1189.78 566.595C1275.4 562.742 1365.18 577.312 1441.08 618.773C1466.37 632.582 1489.13 649.054 1511.34 667.339C1512.97 656.878 1514.26 647.203 1518.86 637.536C1522.84 629.175 1529.44 619.63 1538.66 616.749C1545.02 614.758 1551.68 616.299 1557.36 619.501C1583.59 634.274 1592.26 673.158 1599.39 699.851C1611.9 681.658 1628.2 664.494 1650.37 659.063C1652.8 659.645 1655.33 660.206 1657.69 661.077C1661.7 662.562 1664.65 666.04 1666.27 669.923C1675.67 692.321 1647.05 729.431 1639.36 750.056C1639.23 750.377 1639.12 750.701 1639.01 751.022C1645.2 754.748 1651.44 758.474 1657.42 762.526C1697.82 789.879 1723.14 831.303 1732.42 878.783C1739.46 914.752 1746.06 989.125 1738.93 1023.99C1737.36 1031.63 1734.44 1039.15 1730.01 1045.6C1726.57 1050.6 1721.92 1055.04 1715.69 1056C1705.74 1057.54 1697.65 1052.2 1690.24 1046.41C1681.9 1073.77 1667.15 1099.7 1655.06 1125.56C1635.23 1167.96 1620.17 1212.13 1590.44 1249.12C1584.05 1257.09 1574.89 1269.06 1563.83 1269.82C1558.51 1270.19 1552.42 1267.82 1548.59 1264.15C1540.18 1256.1 1541.6 1242.11 1541.6 1231.44C1524.69 1247.99 1511.43 1271.11 1491.92 1284.39C1485.9 1288.48 1477.52 1292.67 1470.09 1291.01C1457.97 1288.31 1462.43 1278.86 1457.54 1271.56C1450.06 1275.98 1444.71 1283.44 1437.27 1288.05C1432.8 1290.82 1427.26 1293.56 1421.88 1292.15C1415.72 1290.54 1413.26 1286.67 1410.13 1281.6C1383.86 1300.75 1368.93 1310.16 1338.99 1323.25C1338.41 1330.45 1338.41 1337.8 1338.49 1345.02C1338.58 1354.32 1339.37 1400.98 1344.28 1405.79C1346.08 1405.24 1347.93 1404.67 1349.8 1404.37C1361.56 1402.41 1391.86 1420 1401.53 1426.47C1410.66 1432.58 1418.46 1439.36 1425.1 1448.13C1435.23 1461.49 1443.56 1476.47 1451.86 1491.01C1469.75 1522.33 1485.81 1554.18 1501.45 1586.67C1507.54 1599.32 1520.04 1622.92 1522.26 1636.07C1522.92 1639.94 1522.86 1644.42 1520.58 1647.72L1518.92 1648C1515.04 1645.83 1512.2 1640.6 1510.11 1636.73C1500.23 1618.4 1493.26 1598.06 1484.81 1579.02C1476.29 1559.78 1466.05 1541 1456.2 1522.42C1443.86 1499.15 1428.93 1477.48 1415.96 1454.6C1407.39 1470.66 1397.61 1486.01 1389.3 1502.24C1377.02 1526.25 1366.82 1552 1357 1577.1C1351.59 1590.93 1339.69 1635.13 1332.76 1643.47C1332.36 1643.95 1331.91 1644.39 1331.43 1644.78C1330.96 1645.18 1330.44 1645.53 1329.9 1645.84C1322.38 1649.97 1306.34 1646.62 1298.46 1644.15C1296.14 1643.42 1294.07 1642.1 1293.21 1639.69C1292.44 1637.55 1292.8 1634.9 1293.37 1632.75C1298.12 1614.87 1306.71 1596.83 1313.5 1579.65C1328.08 1542.73 1342.38 1505.9 1358.81 1469.74C1362.2 1461.4 1367.21 1452.97 1372.15 1445.48C1374.6 1441.78 1377.85 1438.15 1379.9 1434.25C1380.62 1432.85 1380.8 1432.24 1380.68 1430.72C1379.06 1428.5 1378.72 1427.81 1376.14 1426.68C1367.7 1427.1 1359.96 1441.84 1354.51 1447.77C1323.31 1481.8 1277.7 1514.76 1230.13 1516.34C1210.89 1516.97 1188.43 1512.95 1174.05 1499.15C1160.57 1486.2 1157.76 1467.36 1157.44 1449.55C1151.47 1459.2 1149.18 1472.01 1145.27 1482.7C1134.23 1512.83 1122.38 1543.33 1113.43 1574.17C1106.79 1597 1102.33 1620.58 1096.09 1643.58C1086.64 1646.05 1074.76 1647.55 1065.42 1643.99C1062.18 1642.75 1058.21 1640.01 1057.24 1636.43C1055.39 1629.56 1062.02 1609.91 1064 1602.57C1076.77 1555.09 1090.22 1508.93 1110.72 1464.14C1071.66 1488.27 1016.56 1558.74 989.109 1597.44C982.398 1606.91 975.839 1616.49 969.432 1626.17C965.992 1631.34 962.865 1637.15 958.743 1641.78C956.263 1644.56 954.337 1646.45 950.465 1646.66C948.025 1645.22 948.025 1645.3 947.114 1642.63C948.603 1628.68 966.276 1607.98 974.798 1596.41C1022.82 1531.23 1060.22 1485.32 1126.09 1436.15C1140.5 1425.57 1155.26 1415.5 1170.37 1405.95C1180.63 1399.44 1198.33 1391.75 1206.1 1383.14C1205.97 1372.09 1205.81 1361.09 1205.09 1350.06C1194.59 1350.09 1184.11 1349.8 1173.63 1349.19C1099.01 1344.29 1025.19 1324.41 974.207 1266.05C935.442 1221.68 914.257 1158.62 918.547 1099.73C926.471 990.925 993.028 896.318 1058.32 813.163C1077.66 788.548 1096.46 762.168 1120.2 741.611C1094.38 741.39 1067.05 750.657 1041.65 743.077C1030.37 739.71 1023.44 733.353 1017.89 723.252C1017.93 719.879 1017.87 716.246 1018.68 712.953C1026.71 680.259 1089.49 649.903 1117.48 632.934C1113.4 631.088 1109.26 629.172 1105.53 626.664C1098.84 622.146 1094.56 615.066 1093.32 607.091C1092.67 602.848 1094.12 598.589 1096.8 595.298C1112.89 575.56 1165.2 569.247 1189.78 566.595ZM1133.03 745.896C1116.01 757.756 1102.28 776.938 1089.68 793.27C1101.32 792.584 1116.23 790.741 1125.56 799.261C1128.47 801.917 1130.32 805.627 1130.46 809.591C1130.6 813.97 1128.57 818.193 1125.58 821.299C1118.87 828.254 1108.39 830.324 1099.04 830.155C1086.6 829.929 1078.75 825.054 1068.06 819.652C1049.61 839.32 1031.81 867.577 1016.72 890.178C1001.96 912.284 985.222 935.415 974.493 959.818C987.147 964.938 1006.37 972.717 1011.91 986.336C1013.45 990.118 1013.64 994.927 1011.8 998.656C1009.71 1002.86 1004.2 1005.52 999.858 1006.6C986.678 1009.89 969.875 1004.45 957.106 1001.42C941.811 1024.57 932.124 1077.21 930.901 1105.25C930.088 1123.9 931.331 1142.19 935.06 1160.52C935.414 1162.23 935.79 1163.94 936.187 1165.64C936.584 1167.35 937.002 1169.04 937.44 1170.74C937.879 1172.43 938.339 1174.11 938.819 1175.8C939.299 1177.48 939.8 1179.16 940.321 1180.82C940.843 1182.49 941.385 1184.16 941.947 1185.81C942.51 1187.47 943.093 1189.12 943.697 1190.76C944.3 1192.4 944.923 1194.04 945.567 1195.67C946.21 1197.29 946.874 1198.9 947.557 1200.51C948.24 1202.12 948.943 1203.73 949.666 1205.32C950.389 1206.92 951.131 1208.5 951.893 1210.07C952.655 1211.65 953.437 1213.21 954.237 1214.77C955.038 1216.32 955.857 1217.87 956.695 1219.4C957.534 1220.94 958.391 1222.46 959.268 1223.97C960.144 1225.49 961.039 1226.99 961.952 1228.48C962.865 1229.97 963.797 1231.46 964.746 1232.93C965.696 1234.4 966.664 1235.85 967.649 1237.29C968.635 1238.74 969.638 1240.17 970.659 1241.59C971.68 1243.01 972.719 1244.42 973.774 1245.81C974.83 1247.21 975.902 1248.6 976.992 1249.96C978.082 1251.33 979.188 1252.69 980.312 1254.03C981.435 1255.37 982.574 1256.7 983.73 1258.01C984.886 1259.32 986.058 1260.62 987.246 1261.91C988.433 1263.19 989.637 1264.46 990.856 1265.72C992.076 1266.97 993.31 1268.21 994.56 1269.43C995.809 1270.66 997.074 1271.86 998.353 1273.06C999.633 1274.25 1000.93 1275.43 1002.24 1276.59C1003.54 1277.75 1004.87 1278.9 1006.2 1280.03C1007.54 1281.16 1008.89 1282.27 1010.25 1283.37C1011.62 1284.46 1013 1285.54 1014.39 1286.6C1015.78 1287.66 1017.18 1288.7 1018.6 1289.74C1020.02 1290.76 1021.45 1291.77 1022.89 1292.77C1024.33 1293.75 1025.78 1294.73 1027.25 1295.68C1089.97 1336.86 1196.65 1345.06 1268.94 1329.86C1344.63 1313.96 1402.77 1282.66 1450.3 1221.15C1464.52 1202.95 1476.5 1184.09 1487.04 1163.54C1484.48 1160.22 1481.57 1156.8 1481.88 1152.31C1481.97 1151.08 1482.64 1151.03 1483.55 1150.37C1492.84 1151.55 1495.54 1160.38 1502.99 1165.1C1523.9 1178.39 1557.04 1173.24 1575.96 1158.57C1595.78 1143.19 1605.73 1118.91 1608.78 1094.55C1610.87 1077.92 1607.92 1063.4 1597.53 1049.99C1597.02 1049.32 1596.49 1048.66 1595.94 1048.02C1595.4 1047.38 1594.84 1046.75 1594.26 1046.14C1593.69 1045.52 1593.09 1044.92 1592.49 1044.34C1591.89 1043.75 1591.27 1043.18 1590.63 1042.62C1590 1042.07 1589.35 1041.53 1588.68 1041.01C1588.03 1040.49 1587.35 1039.98 1586.67 1039.49C1585.98 1039 1585.29 1038.53 1584.58 1038.07C1583.87 1037.62 1583.15 1037.18 1582.41 1036.76C1581.69 1036.34 1580.95 1035.94 1580.19 1035.56C1579.44 1035.18 1578.68 1034.81 1577.92 1034.47C1577.15 1034.12 1576.37 1033.8 1575.58 1033.49C1574.8 1033.18 1574.01 1032.9 1573.21 1032.63C1572.41 1032.36 1571.6 1032.12 1570.79 1031.89C1569.98 1031.66 1569.16 1031.46 1568.34 1031.27C1567.51 1031.08 1566.69 1030.91 1565.86 1030.77C1565.03 1030.62 1564.2 1030.5 1563.36 1030.39C1547.03 1028.43 1531.94 1034.64 1519.37 1044.78C1502.08 1058.74 1491.3 1085.4 1469.6 1092.33C1461.76 1089.2 1457.42 1085.18 1454.11 1077.15C1441.41 1046.37 1466.17 966.654 1475.97 935.639C1480.89 920.017 1488.65 902.78 1490.4 886.485C1483.38 894.844 1471.56 909.712 1459.91 910.45C1456.85 910.643 1454.28 909.548 1452.08 907.444C1448.53 904.045 1447.94 898.232 1448.05 893.604C1448.81 862.094 1468.12 829.568 1482.82 802.577L1481.63 802.954C1461.05 809.631 1418.22 838.062 1397.24 827.019C1393.28 824.935 1390.84 821.402 1389.81 817.097C1386.59 803.596 1395.54 784.653 1402.87 773.669C1404.84 770.694 1407.24 767.961 1409.68 765.348C1385.8 769.241 1362.07 773.72 1338.04 776.657C1301.13 781.167 1161.8 794.12 1136.34 774.989C1131.66 771.47 1130.25 766.2 1128.57 760.892C1129.5 758.049 1134.19 747.962 1133.2 746.052C1133.16 745.984 1133.09 745.948 1133.03 745.896ZM1204.45 578.611C1182.28 580.358 1121.08 585.724 1107.05 603.134C1105.57 604.964 1104.65 607.157 1105.13 609.555C1106.25 615.008 1113.01 618.72 1117.58 621.049C1122.97 623.794 1131.85 627.963 1137.84 625.875C1139.25 625.379 1140.52 624.513 1141.78 623.704L1142.29 622.034C1138.31 617.264 1125.22 616.346 1124.68 609.862C1128.55 604.248 1138.94 602.227 1145.38 601.06C1183.5 594.155 1223.46 594.726 1261.81 599.053C1340.69 607.949 1413.04 631.805 1478.32 677.624C1484.18 681.701 1489.94 685.911 1495.61 690.255C1501.27 694.599 1506.84 699.072 1512.3 703.673C1517.75 708.275 1523.1 713.001 1528.35 717.85C1533.58 722.7 1538.71 727.668 1543.71 732.755C1542.8 721.272 1536.35 669.479 1542.49 662.668C1544.39 660.565 1547.35 658.873 1550.25 659.058C1554.77 659.346 1558.29 663.526 1560.68 666.941C1579.19 693.435 1578.66 727.096 1588.93 756.545C1594.79 749.866 1604.4 732.076 1613.61 730.935C1615.94 730.647 1617.81 731.785 1619.56 733.164C1621.52 736.762 1620.85 739.608 1619.72 743.385C1617.58 750.515 1612.14 758.879 1614 766.39C1620.72 775.106 1635.82 780.432 1645.18 786.295C1648.5 788.375 1651.71 790.607 1654.82 792.991C1657.93 795.375 1660.91 797.9 1663.78 800.567C1701.04 835.356 1708.44 897.048 1710.65 945.594C1711.27 959.49 1712.59 973.744 1710.74 987.594C1710.16 991.957 1709.22 995.738 1706.92 999.542C1705.95 1000.18 1705.43 1000.86 1704.19 1000.67C1697.41 999.607 1690.95 984.881 1683.52 988.712C1677.22 991.957 1674.47 1007.81 1672.84 1014.33C1670.02 1025.58 1667.61 1037.82 1662.07 1048.12C1657.55 1059.01 1652.27 1069.4 1646.63 1079.75C1643.59 1085.33 1638.97 1091.82 1636.95 1097.78C1636.33 1099.56 1636.6 1101.53 1637.44 1103.19C1638.51 1105.3 1640.34 1105.85 1642.4 1106.52C1647.78 1105.55 1650.87 1101.51 1653.86 1097.24C1670.66 1073.29 1673.69 1052.72 1685.17 1027.86C1686.3 1025.42 1687.14 1024.01 1689.29 1022.38C1691.31 1022.4 1691.8 1022.28 1693.34 1023.77C1699.77 1029.98 1700.7 1043.97 1711.47 1044.98C1716.88 1043.58 1719.72 1039.24 1722.34 1034.56C1737.53 1007.4 1724.51 894.252 1714.79 862.385C1708.84 842.896 1699.97 821.783 1687.26 805.608C1675.62 790.808 1660.94 778.65 1644.95 768.832C1641.1 766.467 1626.75 758.373 1625.51 754.929C1624.07 750.951 1628.08 743.414 1629.95 739.834C1637.19 725.997 1658.75 693.47 1654.21 678.079C1653.42 675.398 1652.18 674.023 1650.04 672.301C1646.16 671.329 1643.41 672.466 1640.05 674.522C1629.85 680.763 1619.06 692.234 1612.05 701.849C1608.47 706.749 1604.99 713.044 1600.46 717.073C1598.27 719.019 1596.65 719.351 1593.8 719.22C1591.92 718.052 1590.9 717.168 1590.03 715.022C1586.81 707.131 1585.22 697.947 1583.11 689.677C1578.36 671.023 1570.4 645.734 1555.06 632.948C1551.72 630.165 1547.26 627.435 1542.71 628.396C1538.78 629.23 1536.29 632.619 1534.36 635.879C1525.2 651.317 1526.62 666.944 1526 684.045C1525.96 685.341 1526.14 689.079 1525.64 690.179C1525.3 690.922 1524.53 691.374 1523.98 691.971C1518.79 692.531 1514.63 689.303 1510.71 686.157C1495.66 674.068 1482.83 659.981 1466.63 649.116C1395.41 601.33 1290.1 572.522 1204.45 578.611ZM1323.32 1328.91C1313.84 1331.69 1304.39 1334.58 1294.97 1337.58C1293.23 1341.05 1291.76 1344.69 1288.9 1347.37L1287.3 1347.5C1286.26 1345.9 1285.74 1344.58 1285.22 1342.73L1283.33 1341.69L1281.2 1342.49C1279.18 1347.38 1283.66 1351.7 1278.46 1355.86C1273.32 1354.08 1272.77 1346.8 1268.25 1344.6L1268.04 1344.96L1268.99 1346.26L1268.76 1345.42L1267.82 1346.03C1267.55 1351.32 1268.2 1362.32 1264.65 1366C1262.77 1364.96 1261.89 1363.7 1261.27 1361.66C1259.96 1357.26 1260 1350.88 1256.6 1347.84L1254.46 1347.81C1250.95 1354.35 1259.33 1366.49 1249.63 1369.67C1248.5 1369.45 1247.39 1369.58 1246.7 1368.54C1242.99 1362.86 1249.08 1354.21 1242.7 1349.55L1240.86 1349.7C1236.04 1356.05 1246.02 1371.91 1236.53 1375.31C1234.6 1374.76 1234.77 1375.23 1233.69 1373.3C1230.33 1367.26 1229.57 1363.82 1231.12 1357.13C1231.73 1354.5 1232.33 1353.62 1231.17 1351.14C1226.86 1349.47 1221.97 1350.53 1217.47 1350.94C1218.05 1362.3 1223.77 1404.95 1216.42 1412.27C1213.5 1415.18 1209.43 1413.51 1205.8 1415.1C1195.39 1428.45 1190.21 1441.02 1192.3 1458.13C1193.27 1465.95 1194.92 1472.56 1201.41 1477.74C1210.46 1484.98 1224.25 1485.32 1235.26 1483.81C1272.64 1478.69 1304.79 1448.68 1331.48 1424.06C1330.26 1412.23 1328.93 1400.38 1328.49 1388.5C1327.98 1374.97 1329.76 1340.9 1326.14 1329.67C1324.91 1329.07 1324.75 1328.83 1323.32 1328.91ZM1199.58 1403.08C1188.4 1409.06 1178.57 1413.81 1174.49 1426.88C1169.52 1442.81 1167.4 1466.11 1176 1481.23C1182.21 1492.13 1192.53 1499.15 1204.51 1502.31C1233.36 1509.92 1265.01 1499.79 1289.87 1485.09C1310.84 1472.69 1343.66 1445.54 1357.09 1424.07C1357.71 1421.64 1358.25 1420.6 1357 1418.22C1355.71 1415.77 1351.31 1412.93 1348.61 1412.5C1346.81 1412.22 1346.67 1412.27 1345.17 1413.36C1344.35 1418.97 1343.94 1426.01 1341.41 1431.07C1337.33 1439.23 1313.74 1456.72 1305.57 1462.83C1279.98 1481.97 1248.78 1500.31 1215.45 1495.67C1204.18 1494.1 1193.59 1488.55 1186.88 1479.18C1178.88 1467.99 1178.37 1451.17 1180.64 1438C1182.14 1429.31 1186.19 1421.88 1191.19 1414.72C1192.57 1412.74 1200.6 1404.81 1200.54 1403.44L1199.58 1403.08ZM1198.6 629.635C1182.18 633.343 1141.15 642.882 1132.76 656.73C1132.13 657.783 1132.03 658.78 1131.99 659.976C1132.99 661.813 1133.73 663.02 1135.88 663.644C1136.87 663.935 1138.18 663.866 1139.19 663.883C1150.94 659.917 1200.41 646.204 1205.33 635.631C1206 634.174 1205.68 633.357 1205.54 631.806C1204.56 630.32 1204.69 629.673 1202.81 629.369C1201.15 629.101 1200.21 629.255 1198.6 629.635ZM1654.06 838.53C1653.3 840.25 1652.43 842.171 1652.34 844.071C1651.93 852.924 1661.2 885.041 1664.93 894.114C1666.15 897.108 1666.99 898.87 1669.94 900.315L1672.56 899.553C1677.78 891.007 1676.05 883.228 1673.77 873.97C1671.63 865.34 1666.19 845.063 1658.11 839.805C1656.79 838.946 1655.58 838.758 1654.06 838.53ZM1216.73 654.927C1209.51 657.022 1194.11 660.656 1189.62 666.822C1188.25 668.695 1188.81 669.478 1189.41 671.484C1191.4 673.156 1192.33 674.482 1195.13 674.454C1196.14 674.443 1197.68 673.878 1198.6 673.618C1205.36 672.035 1222.82 668.252 1226.67 661.865C1228.01 659.628 1227.74 659.075 1227.12 656.718C1223.71 654.231 1220.84 654.453 1216.73 654.927ZM1627.06 859.257C1626.72 869.997 1628.58 884.587 1636.17 892.907C1638.68 895.666 1640.93 895.906 1644.54 896.019C1646.41 886.247 1643.24 874.424 1637.72 866.159C1635.75 863.185 1633.67 860.238 1629.93 859.559C1628.79 859.353 1628.16 859.334 1627.06 859.257Z" fill="black"/>
<path d="M1562.29 1070C1563.93 1069.98 1565.56 1070.04 1567.2 1070.17C1568.84 1070.3 1570.47 1070.51 1572.08 1070.79C1573.7 1071.06 1575.3 1071.41 1576.88 1071.84C1578.47 1072.26 1580.04 1072.75 1581.58 1073.32C1587.54 1075.5 1593.6 1080.82 1596.15 1086.7C1597.24 1089.21 1597.31 1090.98 1596.21 1093.44C1586.08 1097.09 1580.59 1081.01 1564.1 1081.67C1554.24 1082.07 1545.39 1086.54 1538.71 1093.64C1544.91 1097.22 1553.36 1101.16 1557.15 1107.43C1561.21 1114.16 1558.75 1122.03 1556.9 1129.04C1552.57 1134.65 1547.47 1137.71 1540.35 1138.78C1537.08 1139.27 1532.91 1139.07 1530.27 1136.8C1528.57 1135.34 1527.86 1134.18 1527.53 1132.01C1530.68 1129.22 1536.06 1128.84 1539.99 1127.46C1542.98 1126.4 1546.66 1124.57 1547.63 1121.25C1548.35 1118.78 1547.32 1115.89 1546.13 1113.73C1541.64 1105.53 1529.51 1106.96 1521.91 1103.89C1519.6 1102.96 1518.95 1101.88 1518 1099.71C1518.2 1097.58 1518.75 1096.23 1519.97 1094.51C1530.36 1079.95 1545.03 1072.53 1562.29 1070Z" fill="black"/>
<path d="M1050.35 872.009C1052.88 871.968 1054.28 872.029 1056.66 873.081C1058.27 874.879 1059.09 876.134 1059.4 878.575C1061.35 893.856 1051.62 914.886 1055.1 933.457C1055.76 936.937 1057.32 940.12 1060.43 941.994C1062.53 943.254 1064.46 943.35 1066.8 942.693C1084.53 937.716 1086.89 899.008 1094.39 888.044C1096.04 885.63 1097.53 884.942 1100.32 884.492C1101.63 885.066 1102.78 885.273 1103.66 886.48C1106.15 889.934 1104.51 895.874 1103.99 899.834C1101.02 912.435 1096.72 925.316 1089.91 936.376C1084.74 944.777 1077.03 953.628 1066.95 955.62C1062.13 956.576 1057.11 955.755 1053.07 952.855C1046.05 947.817 1043.05 938.631 1041.95 930.361C1039.92 914.881 1040.47 885.005 1050.35 872.009Z" fill="black"/>
<path d="M1146.35 912C1149.22 912.612 1151.7 912.943 1153.69 915.282C1156.4 918.464 1156.17 924.877 1155.73 928.761C1153.63 946.902 1141.11 997.569 1126.83 1008.37C1114.19 1017.93 1104.49 1002.78 1093.07 1001.78C1091.09 1001.6 1090.81 1002.14 1089.45 1003.39C1087.02 1009.62 1089.12 1015.17 1090.29 1021.43C1091.27 1026.68 1092.54 1032.33 1089.38 1037C1086.03 1035.26 1084.15 1033.44 1082.11 1030.23C1076.36 1021.2 1075.89 1005.94 1078.59 995.767C1079.4 992.763 1080.82 989.825 1083.66 988.329C1092.65 983.601 1109.06 995.954 1118.23 998.567C1129.08 996 1137.55 953.97 1139.37 942.807C1140.74 934.467 1140.8 925.018 1143.04 916.952C1143.64 914.783 1144.81 913.505 1146.35 912Z" fill="black"/>
<path d="M1312.34 801.105C1316.61 800.734 1320.15 801.361 1324.17 802.775C1341.41 808.818 1355.16 821.906 1363 838.437C1362.8 842.431 1362.53 846.672 1360.75 850.31C1357.75 856.472 1352.44 858.989 1346.27 861C1332.49 853.56 1324.83 847.505 1309.48 841.21C1303.64 838.822 1297.36 835.045 1295 828.795C1293.23 824.087 1293.96 818.382 1296 813.874C1298.97 807.307 1305.85 803.242 1312.34 801.105Z" fill="black"/>
<path d="M1258.73 904C1261.07 904.955 1262.54 905.845 1264.48 907.459C1267.04 915.308 1262.28 928.193 1260.82 936.39C1258.11 951.685 1257.38 970.07 1267.02 983.26C1271.19 988.967 1278.01 994.385 1285.21 995.182C1291.6 995.885 1297.25 992.73 1301.92 988.635C1319.13 973.537 1324.41 949.658 1325.98 927.903C1326.33 922.96 1326.67 917.056 1330.62 913.646C1333.31 913.2 1333.79 913.611 1336.22 914.679C1339.77 918.697 1339.01 923.601 1338.75 928.599C1335.96 953.466 1329.88 979.798 1310.2 997.018C1302.41 1003.83 1292.56 1007.82 1282.12 1006.86C1272.47 1005.96 1264.43 1000.73 1258.53 993.168C1244.42 975.099 1246.11 950.51 1248.9 929.043C1250.03 920.437 1251.48 909.596 1258.73 904Z" fill="black"/>
<path d="M1043.79 1087L1048.02 1088.94C1053.61 1094.95 1051.63 1110.39 1054.26 1118.72C1060.44 1138.29 1074.04 1157.87 1092.56 1167.41C1109.36 1176.08 1130.74 1176.87 1148.56 1171.08C1167.33 1164.99 1187.65 1149.04 1197.45 1131.8C1201.92 1123.94 1204.85 1115.21 1209.11 1107.22C1211.34 1103.04 1214.34 1097.98 1219.1 1096.6C1221.48 1097.46 1221.6 1097.42 1222.95 1099.53C1223.3 1103.3 1221.81 1106.58 1220.59 1110.08C1212.93 1127.96 1203.62 1144.22 1190.21 1158.43C1173.57 1176.05 1151.78 1186.61 1127.42 1186.99C1105.61 1187.33 1085.14 1179.89 1069.42 1164.57C1053.18 1148.73 1038.66 1121.68 1039.01 1098.46C1039.08 1093.31 1040.08 1090.55 1043.79 1087Z" fill="black"/>
<path d="M1335.31 1038.24C1347.99 1037.08 1363.09 1040.12 1373.77 1047.37C1378.3 1050.43 1382.97 1054.81 1383.84 1060.55C1384.42 1064.31 1383.37 1067.76 1381.13 1070.76C1372.17 1082.75 1350.81 1084.93 1337.1 1086.7C1323.74 1087.49 1305.77 1087.2 1294.1 1079.67C1290.33 1077.24 1287.12 1073.73 1286.23 1069.17C1285.41 1064.91 1286.86 1060.44 1289.34 1056.99C1298.83 1043.77 1320.49 1040.28 1335.31 1038.24Z" fill="black"/>
</svg>
