<?xml version="1.0" encoding="UTF-8"?>
<svg id="Layer_2" data-name="Layer 2" xmlns="http://www.w3.org/2000/svg" viewBox="0 0 112.46 112.46">
  <defs>
    <style>
      .cls-1 {
        fill: #1C1C1C;
        stroke-width: 0px;
      }
    </style>
  </defs>
  <g id="Layer_1-2" data-name="Layer 1">
    <path class="cls-1" d="M111.1,54.55l-37.9-8.14,22.12-26.86c1.32-1.6-.81-3.73-2.41-2.41l-26.86,22.12L57.9,1.35c-.39-1.8-2.96-1.8-3.35,0l-8.14,37.9-26.86-22.12c-1.6-1.32-3.73.81-2.41,2.41l22.12,26.86L1.35,54.55c-1.8.39-1.8,2.96,0,3.35l37.9,8.14-22.12,26.86c-1.32,1.6.81,3.73,2.41,2.41l26.86-22.12,8.14,37.9c.39,1.8,2.96,1.8,3.35,0l8.14-37.9,26.86,22.12c1.6,1.32,3.73-.81,2.41-2.41l-22.12-26.86,37.9-8.14c1.8-.39,1.8-2.96,0-3.35Z"/>
  </g>
</svg>